{"glyphs":{"0":{"ha":848,"x_min":45,"x_max":802,"o":"m 370 183 q 434 214 405 183 q 486 309 463 245 q 535 493 517 393 q 554 675 554 593 q 534 763 554 733 q 475 793 514 793 q 411 762 439 793 q 358 667 383 732 q 311 486 329 587 q 293 298 293 384 q 313 213 293 243 q 370 183 332 183 m 355 -26 q 127 76 210 -26 q 45 361 45 179 q 78 608 45 487 q 170 818 111 729 q 311 956 229 908 q 492 1003 394 1003 q 719 899 637 1003 q 802 611 802 795 q 769 367 802 484 q 679 161 737 250 q 536 20 616 67 q 355 -26 455 -26 z "},"1":{"ha":848,"x_min":216,"x_max":650,"o":"m 241 0 l 366 774 l 216 774 l 277 983 l 650 983 l 494 0 l 241 0 z "},"2":{"ha":848,"x_min":3,"x_max":794,"o":"m 450 210 q 513 214 486 212 q 551 215 541 215 l 762 215 l 728 0 l 3 0 l 416 473 q 518 608 490 558 q 546 697 546 657 q 517 771 546 743 q 440 799 488 799 q 346 757 380 799 q 311 642 312 715 l 77 642 q 188 908 89 812 q 453 1003 288 1003 q 700 920 606 1003 q 794 704 794 837 q 746 525 794 611 q 581 330 697 439 l 450 210 z "},"3":{"ha":848,"x_min":41,"x_max":796,"o":"m 42 321 l 273 321 q 312 211 278 250 q 404 172 346 172 q 490 205 456 172 q 524 290 524 239 q 485 380 524 347 q 378 412 446 412 l 367 412 l 395 587 q 410 585 401 586 q 435 585 418 585 q 533 617 498 585 q 568 705 568 649 q 537 782 568 753 q 456 811 505 811 q 382 785 412 811 q 343 711 353 760 l 122 711 q 236 924 139 846 q 485 1003 334 1003 q 710 931 625 1003 q 796 743 796 859 q 741 591 796 654 q 586 501 686 528 q 713 426 669 481 q 758 286 758 370 q 661 61 758 147 q 404 -25 563 -25 q 139 67 235 -25 q 42 321 43 159 z "},"4":{"ha":848,"x_min":-1,"x_max":807,"o":"m 454 415 l 511 721 q 533 817 516 751 l 536 828 q 502 772 521 800 q 461 717 482 743 l 224 415 l 454 415 m 389 0 l 424 225 l -1 225 l 29 415 l 479 983 l 768 983 l 677 415 l 807 415 l 778 225 l 647 225 l 612 0 l 389 0 z "},"5":{"ha":848,"x_min":-5,"x_max":790,"o":"m 78 294 q 216 207 152 235 q 342 179 279 179 q 469 225 423 179 q 515 353 515 271 q 460 472 515 429 q 309 515 406 515 q 218 506 264 515 q 125 478 172 496 l 257 983 l 790 983 l 750 778 l 406 778 l 370 637 q 423 647 399 644 q 469 650 448 650 q 679 569 599 650 q 758 355 758 488 q 648 79 758 184 q 355 -26 538 -26 q 164 1 254 -26 q -5 85 74 29 l 78 294 z "},"6":{"ha":848,"x_min":40,"x_max":785,"o":"m 441 646 q 473 650 457 648 q 505 652 488 652 q 708 569 631 652 q 785 351 785 487 q 679 82 785 187 q 408 -24 573 -24 q 140 72 239 -24 q 40 328 40 167 q 96 539 40 432 q 345 867 153 647 l 450 987 l 746 987 l 441 646 m 262 329 q 307 223 262 268 q 412 179 351 179 q 517 222 474 179 q 561 329 561 266 q 518 435 561 393 q 412 478 475 478 q 307 434 351 478 q 262 329 262 390 z "},"7":{"ha":848,"x_min":49,"x_max":922,"o":"m 49 0 l 530 757 l 111 757 l 147 983 l 922 983 l 916 954 l 329 0 l 49 0 z "},"8":{"ha":848,"x_min":32,"x_max":785,"o":"m 271 302 q 304 210 271 246 q 390 174 338 174 q 484 211 446 174 q 521 304 521 248 q 486 396 521 360 q 397 432 452 432 q 308 393 345 432 q 271 302 271 355 m 461 838 q 383 803 415 838 q 351 717 351 768 q 382 639 351 669 q 461 610 412 610 q 541 642 509 610 q 572 724 572 673 q 540 805 572 772 q 461 838 508 838 m 267 538 q 176 620 207 570 q 144 733 144 670 q 233 928 144 852 q 465 1003 322 1003 q 695 929 606 1003 q 785 741 785 855 q 741 607 785 663 q 611 522 697 552 q 726 437 686 497 q 766 290 766 377 q 659 62 766 150 q 379 -26 552 -26 q 129 56 226 -26 q 32 267 32 138 q 94 446 32 374 q 267 538 155 517 z "},"9":{"ha":848,"x_min":74,"x_max":817,"o":"m 416 335 q 386 330 401 332 q 353 329 370 329 q 150 411 227 329 q 74 629 74 494 q 180 899 74 793 q 450 1004 286 1004 q 718 909 618 1004 q 817 653 817 814 q 747 415 817 541 q 514 114 677 290 l 408 0 l 127 0 l 416 335 m 595 652 q 551 757 595 713 q 446 802 507 802 q 340 758 384 802 q 297 652 297 715 q 340 545 297 588 q 446 503 383 503 q 551 547 508 503 q 595 652 595 591 z "},"Ď":{"ha":833,"x_min":69,"x_max":764,"o":"m 69 -245 l 69 979 l 764 979 l 764 -245 l 69 -245 m 147 -168 l 686 -168 l 686 901 l 147 901 l 147 -168 z "}," ":{"ha":425,"x_min":0,"x_max":0,"o":""},"!":{"ha":498,"x_min":54,"x_max":457,"o":"m 54 113 q 95 209 54 168 q 192 249 135 249 q 289 210 250 249 q 329 113 329 170 q 289 15 329 54 q 192 -25 249 -25 q 95 16 135 -25 q 54 113 54 56 m 204 1015 l 457 1015 l 349 329 l 96 329 l 204 1015 z "},"\"":{"ha":484,"x_min":52,"x_max":433,"o":"m 282 975 l 433 975 l 433 595 l 282 595 l 282 975 m 52 975 l 200 975 l 200 595 l 52 595 l 52 975 z "},"#":{"ha":1068,"x_min":16,"x_max":1053,"o":"m 479 571 l 424 414 l 590 414 l 646 571 l 479 571 m 464 994 l 633 994 l 539 728 l 699 728 l 794 994 l 964 994 l 869 728 l 1053 728 l 994 571 l 812 571 l 758 415 l 946 415 l 889 258 l 703 258 l 607 -8 l 437 -8 l 532 258 l 372 258 l 277 -8 l 107 -8 l 201 258 l 16 258 l 74 415 l 257 415 l 313 571 l 121 571 l 179 728 l 368 728 l 464 994 z "},"$":{"ha":848,"x_min":0,"x_max":798,"o":"m 121 326 q 251 224 182 258 q 392 189 319 189 q 491 215 455 189 q 528 286 528 241 q 502 347 528 322 q 385 408 476 372 q 193 522 250 463 q 135 664 135 582 q 227 889 135 801 q 472 985 319 977 l 488 1075 l 572 1075 l 557 982 q 679 950 619 977 q 798 876 739 924 l 677 703 q 574 774 625 751 q 468 798 524 798 q 379 775 412 798 q 346 715 346 753 q 463 621 346 672 q 539 586 511 600 q 710 466 665 524 q 754 317 754 408 q 654 97 754 186 q 395 -4 555 7 l 367 -165 l 282 -165 l 309 -4 q 143 42 221 2 q 0 154 65 81 l 121 326 z "},"%":{"ha":1140,"x_min":43,"x_max":1095,"o":"m 832 85 q 900 150 871 85 q 929 307 929 216 q 918 369 929 350 q 882 387 907 387 q 812 322 842 387 q 783 163 783 256 q 795 103 783 121 q 832 85 806 85 m 1095 275 q 1019 58 1095 144 q 828 -28 943 -28 q 677 29 734 -28 q 621 178 621 85 q 695 400 621 315 q 888 486 769 486 q 1039 429 983 486 q 1095 275 1095 372 m 260 602 q 328 667 299 602 q 357 823 357 732 q 346 885 357 867 q 310 903 335 903 q 240 838 269 903 q 211 679 211 772 q 222 620 211 638 q 260 602 234 602 m 518 791 q 444 576 518 661 q 256 490 369 490 q 100 546 157 490 q 43 700 43 602 q 117 920 43 836 q 310 1004 191 1004 q 461 947 405 1004 q 518 791 518 889 m 200 -26 l 814 1003 l 942 1003 l 325 -26 l 200 -26 z "},"&":{"ha":1068,"x_min":36,"x_max":1017,"o":"m 498 624 l 561 661 q 612 707 595 681 q 629 764 629 732 q 606 817 629 795 q 547 838 583 838 q 478 811 505 838 q 450 746 450 785 q 454 714 450 730 q 464 688 457 699 l 498 624 m 553 228 l 395 415 q 308 360 336 392 q 279 283 279 328 q 312 204 279 234 q 397 174 344 174 q 469 187 431 174 q 553 228 507 200 m 745 0 l 677 78 q 523 -1 601 25 q 364 -26 446 -26 q 126 56 216 -26 q 36 271 36 138 q 98 435 36 367 q 307 570 159 504 q 265 659 279 614 q 252 750 252 704 q 334 928 252 857 q 543 999 416 999 q 748 932 670 999 q 825 757 825 865 q 775 615 825 675 q 599 492 726 555 l 721 346 l 779 389 q 818 427 792 399 q 873 493 843 455 l 1017 340 q 935 259 977 296 q 848 193 893 222 l 1011 0 l 745 0 z "},"'":{"ha":252,"x_min":52,"x_max":200,"o":"m 52 975 l 200 975 l 200 595 l 52 595 l 52 975 z "},"(":{"ha":498,"x_min":50,"x_max":533,"o":"m 355 -220 l 197 -297 q 87 -37 123 -167 q 50 228 50 94 q 139 667 50 465 q 401 1026 228 869 l 533 904 q 318 602 392 776 q 244 222 244 429 q 272 -7 244 102 q 355 -220 299 -116 z "},")":{"ha":498,"x_min":-69,"x_max":414,"o":"m 110 949 l 268 1026 q 378 767 342 897 q 414 501 414 637 q 325 61 414 263 q 64 -297 237 -141 l -69 -175 q 146 130 73 -46 q 220 518 220 305 q 193 740 220 633 q 110 949 165 846 z "},"*":{"ha":643,"x_min":96,"x_max":618,"o":"m 416 814 l 572 895 l 618 762 l 446 729 l 593 633 l 503 529 l 386 663 l 376 486 l 241 513 l 297 679 l 142 599 l 96 729 l 269 764 l 121 860 l 212 964 l 326 832 l 336 1007 l 472 981 l 416 814 z "},"+":{"ha":1157,"x_min":172,"x_max":985,"o":"m 498 828 l 660 828 l 660 493 l 985 493 l 985 336 l 660 336 l 660 0 l 498 0 l 498 336 l 172 336 l 172 493 l 498 493 l 498 828 z "},",":{"ha":425,"x_min":-164,"x_max":371,"o":"m -164 -197 l 82 218 l 371 218 l 45 -197 l -164 -197 z "},"-":{"ha":633,"x_min":46,"x_max":539,"o":"m 46 236 l 79 446 l 539 446 l 505 236 l 46 236 z "},".":{"ha":425,"x_min":25,"x_max":298,"o":"m 25 113 q 65 209 25 169 q 161 249 104 249 q 259 210 219 249 q 298 113 298 170 q 259 15 298 54 q 163 -25 220 -25 q 65 16 106 -25 q 25 113 25 56 z "},"/":{"ha":675,"x_min":0,"x_max":675,"o":"m 0 -129 l 530 1015 l 675 1015 l 144 -129 l 0 -129 z "},":":{"ha":498,"x_min":45,"x_max":390,"o":"m 45 113 q 84 209 45 169 q 180 249 124 249 q 278 210 239 249 q 318 113 318 170 q 279 15 318 54 q 182 -25 239 -25 q 85 16 125 -25 q 45 113 45 56 m 117 529 q 156 625 117 585 q 253 665 196 665 q 350 626 311 665 q 390 529 390 587 q 350 432 390 471 q 253 392 310 392 q 157 432 197 392 q 117 529 117 473 z "},";":{"ha":498,"x_min":-155,"x_max":393,"o":"m -155 -197 l 90 218 l 379 218 l 53 -197 l -155 -197 m 119 529 q 159 625 119 585 q 256 665 199 665 q 353 626 313 665 q 393 529 393 587 q 354 431 393 471 q 257 392 314 392 q 160 433 201 392 q 119 529 119 473 z "},"<":{"ha":1157,"x_min":179,"x_max":978,"o":"m 978 823 l 978 652 l 399 414 l 978 178 l 978 5 l 179 335 l 179 493 l 978 823 z "},"=":{"ha":1157,"x_min":172,"x_max":985,"o":"m 172 340 l 985 340 l 985 184 l 172 184 l 172 340 m 172 644 l 985 644 l 985 488 l 172 488 l 172 644 z "},">":{"ha":1157,"x_min":179,"x_max":978,"o":"m 179 823 l 978 493 l 978 335 l 179 5 l 179 178 l 758 414 l 179 652 l 179 823 z "},"?":{"ha":783,"x_min":72,"x_max":745,"o":"m 165 109 q 205 203 165 163 q 300 243 245 243 q 395 204 357 243 q 433 109 433 166 q 396 12 433 50 q 300 -26 358 -26 q 203 11 240 -26 q 165 109 165 48 m 216 319 l 261 589 q 281 588 271 588 q 311 587 292 587 q 460 621 410 587 q 511 718 511 654 q 482 783 511 757 q 408 810 452 810 q 337 786 366 810 q 300 722 308 763 l 72 722 q 182 938 89 859 q 421 1017 275 1017 q 654 935 563 1017 q 745 726 745 854 q 670 530 745 608 q 482 452 596 452 l 464 452 l 443 319 l 216 319 z "},"@":{"ha":1389,"x_min":56,"x_max":1335,"o":"m 787 178 q 702 96 749 122 q 587 71 654 71 q 420 130 477 71 q 363 304 363 189 q 459 578 363 468 q 696 689 555 689 q 787 668 748 689 q 851 606 825 648 l 886 668 l 1026 668 l 922 254 q 922 250 922 253 q 920 232 920 238 q 930 202 920 212 q 962 192 941 192 q 1125 289 1055 192 q 1196 517 1196 387 q 1074 781 1196 679 q 757 884 952 884 q 571 859 656 884 q 415 785 486 834 q 253 598 310 710 q 196 357 196 487 q 334 30 196 152 q 703 -92 471 -92 q 917 -59 814 -92 q 1107 35 1020 -27 l 1173 -57 q 949 -176 1067 -136 q 703 -215 832 -215 q 462 -182 572 -215 q 267 -83 352 -149 q 108 107 160 -1 q 56 353 56 216 q 92 570 56 467 q 197 758 127 673 q 441 947 298 882 q 758 1011 585 1011 q 975 980 873 1011 q 1152 890 1077 949 q 1289 726 1244 818 q 1335 518 1335 633 q 1290 310 1335 405 q 1161 147 1246 215 q 1057 89 1114 109 q 937 69 999 69 q 828 96 865 69 q 787 178 791 123 m 812 472 q 779 551 806 524 q 704 578 751 578 q 581 495 634 578 q 528 301 528 413 q 551 214 528 245 q 618 183 575 183 q 718 223 675 183 q 778 330 762 263 l 812 472 z "},"A":{"ha":987,"x_min":-79,"x_max":961,"o":"m -79 0 l 418 993 l 750 993 l 961 0 l 692 0 l 652 187 l 304 187 l 210 0 l -79 0 m 404 408 l 614 408 l 568 640 q 558 702 562 675 q 554 753 555 729 q 528 681 540 712 q 509 635 516 650 l 404 408 z "},"B":{"ha":868,"x_min":26,"x_max":822,"o":"m 612 517 q 757 441 707 499 q 807 292 807 383 q 773 151 807 216 q 681 50 740 87 q 572 12 637 23 q 354 0 507 0 l 285 0 l 26 0 l 184 993 l 410 993 q 595 987 539 993 q 688 965 650 981 q 786 884 749 941 q 822 757 822 828 q 766 594 822 659 q 612 517 710 530 m 315 195 l 347 195 q 508 224 468 195 q 547 326 547 253 q 513 404 547 380 q 399 427 479 427 l 351 427 l 315 195 m 380 608 l 403 608 q 535 634 498 608 q 571 720 571 659 q 542 783 571 763 q 447 803 512 803 l 410 803 l 380 608 z "},"C":{"ha":907,"x_min":60,"x_max":922,"o":"m 922 946 l 878 672 q 753 747 821 722 q 614 772 686 772 q 410 686 490 772 q 330 467 330 600 q 397 280 330 346 q 587 214 465 214 q 696 227 640 214 q 814 265 752 239 l 772 8 q 660 -17 722 -8 q 528 -25 599 -25 q 188 106 315 -25 q 60 456 60 238 q 93 656 60 561 q 189 829 125 751 q 375 968 264 920 q 625 1017 487 1017 q 778 999 704 1017 q 922 946 852 981 z "},"D":{"ha":1048,"x_min":26,"x_max":985,"o":"m 26 0 l 182 993 l 353 993 q 626 982 544 993 q 758 946 707 972 q 927 783 869 890 q 985 528 985 675 q 933 277 985 385 q 775 96 881 170 q 598 22 701 44 q 256 0 496 0 l 218 0 l 26 0 m 328 221 q 369 219 355 219 q 393 218 382 218 q 635 298 553 218 q 718 533 718 378 q 658 716 718 659 q 463 774 597 774 l 412 774 l 328 221 z "},"E":{"ha":757,"x_min":28,"x_max":757,"o":"m 328 221 l 635 221 l 600 0 l 28 0 l 184 993 l 757 993 l 721 764 l 414 764 l 389 602 l 673 602 l 640 386 l 354 386 l 328 221 z "},"F":{"ha":751,"x_min":28,"x_max":758,"o":"m 28 0 l 184 993 l 758 993 l 722 765 l 414 765 l 387 602 l 676 602 l 642 387 l 354 387 l 293 0 l 28 0 z "},"G":{"ha":1132,"x_min":60,"x_max":1097,"o":"m 599 541 l 1097 540 q 951 124 1091 275 q 572 -26 812 -26 q 198 102 337 -26 q 60 446 60 230 q 102 671 60 564 q 225 859 145 778 q 405 975 301 935 q 631 1015 509 1015 q 880 958 773 1015 q 1064 783 986 901 l 852 639 q 760 739 815 706 q 631 772 705 772 q 425 682 506 772 q 343 454 343 592 q 408 272 343 340 q 578 203 472 203 q 652 212 617 203 q 717 239 687 221 q 762 280 743 255 q 793 338 781 304 l 567 338 l 599 541 z "},"H":{"ha":1093,"x_min":28,"x_max":1065,"o":"m 28 0 l 184 993 l 452 993 l 390 610 l 737 610 l 798 993 l 1065 993 l 908 0 l 640 0 l 704 406 l 358 406 l 294 0 l 28 0 z "},"I":{"ha":492,"x_min":32,"x_max":460,"o":"m 32 0 l 189 993 l 460 993 l 302 0 l 32 0 z "},"J":{"ha":660,"x_min":-71,"x_max":640,"o":"m 60 264 q 117 212 93 227 q 167 197 142 197 q 236 236 213 197 q 286 440 260 274 l 374 993 l 640 993 l 538 345 q 535 327 536 338 q 435 57 505 130 q 331 -12 391 12 q 200 -35 272 -35 q 44 -6 112 -35 q -71 79 -23 22 l 60 264 z "},"K":{"ha":983,"x_min":28,"x_max":1104,"o":"m 28 0 l 184 993 l 450 993 l 383 578 l 761 993 l 1104 993 l 615 503 l 953 0 l 639 0 l 361 437 l 292 0 l 28 0 z "},"L":{"ha":711,"x_min":28,"x_max":660,"o":"m 28 0 l 184 993 l 452 993 l 332 237 l 660 237 l 623 0 l 28 0 z "},"M":{"ha":1293,"x_min":-31,"x_max":1206,"o":"m -31 0 l 273 993 l 568 993 l 635 608 q 646 534 641 573 q 656 453 651 495 q 676 517 663 483 q 711 603 688 551 l 889 993 l 1182 993 l 1206 0 l 961 0 l 958 473 q 960 552 958 513 q 964 631 961 591 q 913 505 949 581 q 903 483 906 490 l 676 0 l 515 0 l 422 482 q 409 556 415 519 q 399 630 404 593 q 383 547 391 586 q 366 473 374 507 l 228 0 l -31 0 z "},"N":{"ha":1135,"x_min":28,"x_max":1108,"o":"m 28 0 l 184 993 l 488 993 l 697 503 q 706 481 700 496 q 754 340 741 401 l 754 366 q 757 426 754 393 q 766 505 760 458 l 843 993 l 1108 993 l 951 0 l 660 0 l 437 505 q 400 596 413 560 q 379 668 388 632 l 379 640 q 377 583 379 613 q 368 503 374 553 l 293 0 l 28 0 z "},"O":{"ha":1196,"x_min":60,"x_max":1137,"o":"m 621 772 q 417 685 499 772 q 335 468 335 597 q 400 285 335 353 q 575 216 466 216 q 778 307 694 216 q 861 528 861 397 q 793 704 861 635 q 621 772 726 772 m 559 -26 q 366 3 453 -26 q 211 90 279 32 q 100 244 140 153 q 60 439 60 336 q 94 647 60 550 q 196 822 128 743 q 390 965 275 916 q 637 1015 504 1015 q 999 886 861 1015 q 1137 551 1137 758 q 1102 343 1137 441 q 1000 168 1067 246 q 806 23 918 73 q 559 -26 694 -26 z "},"P":{"ha":895,"x_min":28,"x_max":879,"o":"m 380 557 l 406 557 q 580 584 534 557 q 625 676 625 611 q 586 756 625 731 q 464 782 547 782 l 416 782 l 380 557 m 28 0 l 186 993 l 458 993 q 629 984 572 993 q 728 953 686 975 q 841 847 804 914 q 879 686 879 780 q 839 514 879 593 q 729 392 798 435 q 633 356 688 367 q 458 346 577 346 l 418 346 l 347 346 l 292 0 l 28 0 z "},"Q":{"ha":1196,"x_min":56,"x_max":1133,"o":"m 452 408 l 734 408 l 798 319 q 849 414 831 361 q 867 526 867 467 q 798 704 867 635 q 624 774 730 774 q 414 685 498 774 q 330 464 330 595 q 395 278 330 348 q 566 208 459 208 q 586 210 572 208 q 606 212 600 212 l 452 408 m 1111 -103 l 836 -103 l 751 8 q 649 -16 703 -7 q 539 -24 596 -24 q 189 105 323 -24 q 56 441 56 235 q 90 648 56 552 q 192 822 124 743 q 386 966 271 916 q 633 1017 500 1017 q 995 888 857 1017 q 1133 554 1133 760 q 1086 312 1133 422 q 946 118 1038 201 l 1111 -103 z "},"R":{"ha":920,"x_min":28,"x_max":880,"o":"m 292 0 l 28 0 l 184 993 l 449 993 q 627 984 568 993 q 728 956 685 976 q 842 856 803 920 q 880 703 880 792 q 807 496 880 579 q 604 392 733 413 l 846 0 l 543 0 l 351 379 l 292 0 m 376 539 l 460 539 q 581 575 538 539 q 623 679 623 611 q 583 771 623 743 q 457 800 544 800 l 418 800 l 376 539 z "},"S":{"ha":798,"x_min":-21,"x_max":778,"o":"m 117 342 q 236 244 179 275 q 353 214 292 214 q 433 238 403 214 q 463 302 463 262 q 342 420 463 357 q 323 429 330 426 q 163 547 206 490 q 119 684 119 603 q 219 924 119 831 q 475 1018 318 1018 q 634 989 557 1018 q 778 903 710 960 l 664 707 q 566 775 610 753 q 485 798 522 798 q 417 774 444 798 q 390 717 390 751 q 492 623 390 675 q 547 593 528 604 q 692 475 652 535 q 733 325 733 415 q 623 70 733 165 q 322 -25 512 -25 q 136 17 222 -25 q -21 143 49 60 l 117 342 z "},"T":{"ha":758,"x_min":64,"x_max":803,"o":"m 165 0 l 286 762 l 64 762 l 102 993 l 803 993 l 765 762 l 553 762 l 432 0 l 165 0 z "},"U":{"ha":1038,"x_min":72,"x_max":1022,"o":"m 172 993 l 439 993 l 359 494 q 347 405 350 437 q 343 349 343 373 q 379 249 343 285 q 479 214 415 214 q 697 622 633 214 l 699 631 l 755 993 l 1022 993 l 933 429 l 933 429 q 860 170 904 245 q 703 22 804 73 q 464 -29 602 -29 q 179 56 286 -29 q 72 282 72 141 q 80 395 72 324 q 104 570 88 465 l 172 993 z "},"V":{"ha":942,"x_min":14,"x_max":1035,"o":"m 278 0 l 14 993 l 296 993 l 418 425 q 426 376 422 404 q 432 313 429 349 q 457 380 445 350 q 476 428 469 410 l 739 993 l 1035 993 l 509 0 l 278 0 z "},"W":{"ha":1389,"x_min":37,"x_max":1467,"o":"m 220 0 l 37 993 l 301 993 l 378 457 q 388 373 385 409 q 392 306 391 338 q 416 395 404 355 q 436 463 427 435 l 612 993 l 857 993 l 929 457 q 939 374 936 410 q 943 306 942 338 q 959 368 949 334 q 991 463 970 402 l 1192 993 l 1467 993 l 1051 0 l 779 0 l 711 462 q 701 545 705 509 q 697 614 698 581 q 674 529 686 569 q 653 457 663 490 l 503 0 l 220 0 z "},"X":{"ha":1040,"x_min":-72,"x_max":1065,"o":"m -72 0 l 368 536 l 103 993 l 404 993 l 509 798 q 527 760 518 779 q 545 721 536 741 q 565 759 553 740 q 593 799 577 778 l 741 993 l 1065 993 l 682 521 l 991 0 l 681 0 l 538 265 q 520 300 529 281 q 501 342 511 320 q 477 296 488 315 q 454 262 465 277 l 257 0 l -72 0 z "},"Y":{"ha":810,"x_min":-28,"x_max":942,"o":"m 182 0 l 252 443 l -28 993 l 268 993 l 376 739 q 394 695 385 720 q 412 642 404 670 q 442 708 431 685 q 460 742 453 732 l 636 993 l 942 993 l 518 440 l 449 0 l 182 0 z "},"Z":{"ha":903,"x_min":-77,"x_max":962,"o":"m -77 0 l 494 775 l 113 775 l 143 993 l 962 993 l 404 236 l 843 236 l 807 0 l -77 0 z "},"[":{"ha":498,"x_min":-17,"x_max":554,"o":"m 191 1015 l 554 1015 l 529 851 l 368 851 l 212 -122 l 374 -122 l 349 -286 l -17 -286 l 191 1015 z "},"\\":{"ha":675,"x_min":106,"x_max":567,"o":"m 567 -129 l 422 -129 l 106 1015 l 250 1015 l 567 -129 z "},"]":{"ha":498,"x_min":-97,"x_max":473,"o":"m 267 -286 l -97 -286 l -72 -122 l 89 -122 l 243 851 l 82 851 l 109 1015 l 473 1015 l 267 -286 z "},"^":{"ha":1389,"x_min":281,"x_max":1107,"o":"m 596 991 l 791 991 l 1107 610 l 928 610 l 694 842 l 460 610 l 281 610 l 596 991 z "},"_":{"ha":694,"x_min":0,"x_max":694,"o":"m 0 -165 l 694 -165 l 694 -328 l 0 -328 l 0 -165 z "},"`":{"ha":694,"x_min":222,"x_max":507,"o":"m 222 1021 l 403 1021 l 507 782 l 411 782 l 222 1021 z "},"a":{"ha":926,"x_min":32,"x_max":864,"o":"m 275 318 q 315 212 275 252 q 421 172 355 172 q 541 228 493 172 q 589 368 589 284 q 549 472 589 432 q 444 511 509 511 q 323 456 371 511 q 275 318 275 401 m 542 92 q 432 4 492 34 q 301 -25 371 -25 q 107 64 183 -25 q 32 294 32 153 q 134 589 32 472 q 390 707 237 707 q 517 677 461 707 q 619 586 574 648 l 635 685 l 864 685 l 755 0 l 530 0 l 542 92 z "},"b":{"ha":926,"x_min":12,"x_max":844,"o":"m 602 368 q 561 474 602 434 q 456 514 521 514 q 335 459 383 514 q 288 319 288 404 q 328 216 288 256 q 432 176 368 176 q 554 231 506 176 q 602 368 602 285 m 357 693 q 347 647 354 672 q 329 590 340 623 q 448 676 387 648 q 574 704 509 704 q 768 615 692 704 q 844 386 844 526 q 742 91 844 208 q 486 -26 640 -26 q 362 3 418 -26 q 253 94 306 32 l 237 0 l 12 0 l 179 1051 l 414 1051 l 357 693 z "},"c":{"ha":694,"x_min":28,"x_max":636,"o":"m 603 435 q 527 494 566 475 q 447 514 489 514 q 328 459 376 514 q 279 322 279 404 q 317 215 279 254 q 418 175 354 175 q 496 189 458 175 q 571 232 534 203 l 534 7 q 441 -18 486 -10 q 353 -26 396 -26 q 118 67 208 -26 q 28 313 28 161 q 139 600 28 490 q 431 710 250 710 q 541 693 488 710 q 636 644 593 677 l 603 435 z "},"d":{"ha":926,"x_min":32,"x_max":922,"o":"m 281 322 q 321 216 281 256 q 427 176 361 176 q 547 232 498 176 q 595 372 595 288 q 554 476 595 436 q 450 515 514 515 q 329 461 376 515 q 281 322 281 406 m 922 1051 l 757 0 l 529 0 l 543 89 q 432 2 492 31 q 301 -28 371 -28 q 107 61 183 -28 q 32 292 32 151 q 134 586 32 469 q 390 703 236 703 q 515 674 459 703 q 621 583 571 645 l 621 603 q 623 645 621 623 q 628 690 625 667 l 685 1051 l 922 1051 z "},"e":{"ha":829,"x_min":21,"x_max":768,"o":"m 542 424 q 505 512 538 479 q 415 545 471 545 q 325 513 365 545 q 265 424 286 481 l 542 424 m 249 285 l 249 269 q 282 170 249 204 q 379 136 315 136 q 464 155 424 136 q 549 215 503 174 l 679 83 q 544 0 621 28 q 374 -28 468 -28 q 114 61 206 -28 q 21 311 21 151 q 131 597 21 487 q 416 707 241 707 q 672 610 575 707 q 768 353 768 513 q 764 301 768 338 q 762 285 763 290 l 249 285 z "},"f":{"ha":514,"x_min":5,"x_max":591,"o":"m 39 0 l 119 510 l 5 510 l 33 685 l 147 685 l 158 754 q 163 781 160 763 q 224 970 184 920 q 320 1042 261 1017 q 449 1068 378 1068 q 517 1061 481 1068 q 591 1039 553 1054 l 561 843 q 522 858 541 852 q 486 863 503 863 q 426 838 446 863 q 396 746 406 812 l 386 685 l 536 685 l 509 510 l 359 510 l 279 0 l 39 0 z "},"g":{"ha":917,"x_min":-11,"x_max":861,"o":"m 275 318 q 314 212 275 252 q 416 171 353 171 q 539 227 490 171 q 589 368 589 283 q 549 472 589 433 q 444 511 509 511 q 323 456 371 511 q 275 318 275 401 m 779 161 q 772 117 777 145 q 685 -167 741 -100 q 542 -268 629 -233 q 346 -302 455 -302 q 97 -238 188 -302 q -11 -50 7 -174 l 241 -50 q 275 -114 246 -92 q 353 -136 303 -136 q 472 -92 429 -136 q 528 43 515 -47 l 536 102 q 432 17 490 45 q 304 -11 374 -11 q 108 76 184 -11 q 32 302 32 163 q 134 592 32 477 q 390 707 237 707 q 516 678 460 707 q 619 589 572 649 l 635 685 l 861 685 l 779 161 z "},"h":{"ha":875,"x_min":7,"x_max":787,"o":"m 7 0 l 175 1051 l 412 1051 l 351 682 q 342 629 347 655 q 330 578 337 603 q 442 676 387 646 q 564 707 498 707 q 729 649 670 707 q 787 489 787 592 q 775 372 787 454 q 774 359 774 364 l 717 0 l 475 0 l 532 363 q 536 393 534 378 q 538 419 538 408 q 514 487 538 464 q 444 510 490 510 q 346 465 381 510 q 294 319 310 419 l 245 0 l 7 0 z "},"i":{"ha":433,"x_min":18,"x_max":404,"o":"m 144 889 q 182 980 144 942 q 273 1018 220 1018 q 367 981 330 1018 q 404 889 404 945 q 366 796 404 834 q 273 758 328 758 q 182 797 220 758 q 144 889 144 835 m 18 0 l 126 685 l 370 685 l 261 0 l 18 0 z "},"j":{"ha":433,"x_min":-32,"x_max":404,"o":"m 144 889 q 182 980 144 942 q 273 1018 220 1018 q 367 981 330 1018 q 404 889 404 945 q 366 796 404 834 q 273 758 328 758 q 182 797 220 758 q 144 889 144 835 m 211 -302 l -32 -302 l 126 685 l 370 685 l 211 -302 z "},"k":{"ha":836,"x_min":18,"x_max":884,"o":"m 319 395 l 579 685 l 884 685 l 549 351 l 772 0 l 484 0 l 310 323 l 258 0 l 18 0 l 183 1051 l 425 1051 l 319 395 z "},"l":{"ha":433,"x_min":17,"x_max":428,"o":"m 184 1051 l 428 1051 l 260 0 l 17 0 l 184 1051 z "},"m":{"ha":1268,"x_min":7,"x_max":1181,"o":"m 7 0 l 115 685 l 328 685 l 313 571 q 417 674 362 641 q 538 707 472 707 q 662 675 614 707 q 743 574 711 644 q 849 675 795 644 q 968 707 903 707 q 1126 649 1072 707 q 1181 482 1181 592 q 1178 423 1181 454 q 1169 359 1175 392 l 1112 0 l 886 0 l 943 363 q 945 380 945 371 q 946 406 946 389 q 924 484 946 458 q 857 510 901 510 q 766 466 798 510 q 718 318 734 422 l 671 0 l 444 0 l 501 363 q 503 371 502 366 q 507 416 507 404 q 485 486 507 462 q 419 510 462 510 q 330 468 361 510 q 282 318 298 426 l 232 0 l 7 0 z "},"n":{"ha":875,"x_min":7,"x_max":787,"o":"m 7 0 l 115 685 l 347 685 l 330 578 q 442 676 387 646 q 564 707 498 707 q 729 649 670 707 q 787 489 787 592 q 775 372 787 454 q 774 359 774 364 l 717 0 l 475 0 l 532 363 q 536 393 534 378 q 538 419 538 408 q 514 487 538 464 q 444 510 490 510 q 346 465 381 510 q 294 319 310 419 l 245 0 l 7 0 z "},"o":{"ha":851,"x_min":18,"x_max":785,"o":"m 419 511 q 299 452 349 511 q 250 307 250 393 q 286 207 250 244 q 382 170 322 170 q 506 227 457 170 q 554 374 554 284 q 518 474 554 437 q 419 511 481 511 m 18 310 q 132 596 18 484 q 424 708 246 708 q 686 615 588 708 q 785 367 785 522 q 669 83 785 195 q 372 -28 554 -28 q 115 64 212 -28 q 18 310 18 157 z "},"p":{"ha":926,"x_min":-29,"x_max":850,"o":"m 602 358 q 561 464 602 424 q 456 504 521 504 q 335 448 383 504 q 288 309 288 393 q 328 206 288 245 q 432 167 368 167 q 554 221 506 167 q 602 358 602 275 m -29 -302 l 127 685 l 355 685 l 340 590 q 452 677 391 648 q 581 707 512 707 q 774 618 699 707 q 850 389 850 530 q 748 94 850 211 q 492 -24 646 -24 q 367 6 422 -24 q 261 97 311 35 q 259 37 261 64 q 254 -11 258 9 l 210 -302 l -29 -302 z "},"q":{"ha":926,"x_min":32,"x_max":864,"o":"m 275 317 q 315 211 275 251 q 421 171 355 171 q 541 226 493 171 q 589 366 589 281 q 549 469 589 429 q 444 509 509 509 q 323 454 370 509 q 275 317 275 400 m 513 -14 q 523 33 515 7 q 542 90 530 59 q 433 3 494 33 q 301 -26 372 -26 q 107 62 183 -26 q 32 292 32 151 q 134 587 32 470 q 390 704 236 704 q 517 674 460 704 q 621 583 574 644 l 635 685 l 864 685 l 707 -302 l 469 -302 l 513 -14 z "},"r":{"ha":579,"x_min":7,"x_max":587,"o":"m 7 0 l 115 685 l 347 685 l 330 568 q 416 667 362 633 q 541 701 469 701 q 557 700 548 701 q 587 696 567 699 l 539 481 q 496 489 515 486 q 460 492 477 492 q 350 448 390 492 q 294 313 309 404 l 245 0 l 7 0 z "},"s":{"ha":637,"x_min":-28,"x_max":581,"o":"m 581 635 l 510 481 q 424 529 463 514 q 346 545 385 545 q 292 530 313 545 q 271 493 271 515 q 341 435 271 462 q 390 415 372 423 q 528 327 488 372 q 567 212 567 281 q 484 39 567 104 q 261 -26 400 -26 q 111 -6 182 -26 q -28 57 39 15 l 53 221 q 169 161 122 178 q 257 143 216 143 q 315 159 293 143 q 336 200 336 175 q 237 279 336 239 q 191 298 207 292 q 78 375 111 334 q 45 478 45 416 q 127 642 45 576 q 338 707 209 707 q 465 688 403 707 q 581 635 526 670 z "},"t":{"ha":478,"x_min":5,"x_max":510,"o":"m 39 0 l 119 510 l 5 510 l 33 685 l 147 685 l 178 884 l 419 884 l 387 685 l 510 685 l 482 510 l 359 510 l 279 0 l 39 0 z "},"u":{"ha":848,"x_min":37,"x_max":800,"o":"m 103 685 l 343 685 l 298 401 q 286 308 290 345 q 281 258 281 270 q 304 184 281 210 q 372 158 328 158 q 513 395 477 158 q 517 414 515 408 l 559 685 l 800 685 l 751 375 l 749 361 q 637 66 713 140 q 520 -3 589 20 q 363 -26 450 -26 q 124 42 212 -26 q 37 228 37 111 q 42 296 37 255 q 61 422 47 337 l 103 685 z "},"v":{"ha":811,"x_min":-22,"x_max":846,"o":"m 212 0 l -22 685 l 227 685 l 322 346 q 334 294 329 323 q 340 234 338 265 q 372 307 359 277 q 395 350 386 336 l 582 685 l 846 685 l 422 0 l 212 0 z "},"w":{"ha":1187,"x_min":-17,"x_max":1223,"o":"m 186 0 l -17 685 l 224 685 l 293 374 q 304 320 299 349 q 313 256 309 292 q 359 368 328 304 q 363 376 361 374 l 513 685 l 677 685 l 751 374 q 765 309 760 337 q 772 256 770 281 q 819 368 785 299 l 822 376 l 975 685 l 1223 685 l 852 0 l 667 0 l 590 317 q 580 370 585 341 q 571 429 575 399 q 553 382 564 408 q 521 313 542 356 l 370 0 l 186 0 z "},"x":{"ha":765,"x_min":-98,"x_max":783,"o":"m -98 0 l 228 358 l 29 685 l 289 685 l 347 574 q 363 539 356 557 q 378 498 371 521 q 400 538 388 519 q 427 576 412 558 l 509 685 l 783 685 l 513 355 l 711 0 l 440 0 l 376 126 q 357 168 364 150 q 345 203 349 185 q 319 158 331 176 q 296 123 308 139 l 201 0 l -98 0 z "},"y":{"ha":729,"x_min":-24,"x_max":761,"o":"m 178 35 l -17 685 l 233 685 l 293 389 q 297 372 294 383 q 311 270 310 312 q 331 327 319 296 q 359 392 342 357 l 501 685 l 761 685 l 229 -302 l -24 -302 l 178 35 z "},"z":{"ha":745,"x_min":-72,"x_max":746,"o":"m -72 0 l 340 514 l 58 514 l 85 685 l 746 685 l 350 195 l 664 195 l 633 0 l -72 0 z "},"{":{"ha":694,"x_min":103,"x_max":606,"o":"m 606 1002 l 606 838 q 591 838 601 838 q 578 839 582 839 q 488 815 511 839 q 465 715 465 791 l 465 553 q 434 417 465 458 q 322 359 403 376 q 434 303 404 343 q 465 168 465 264 l 465 4 q 488 -94 465 -71 q 576 -118 511 -118 q 591 -117 581 -118 q 606 -117 601 -117 l 606 -281 q 577 -281 595 -281 q 550 -282 559 -282 q 428 -274 477 -282 q 347 -249 380 -266 q 291 -189 307 -227 q 275 -58 275 -151 l 275 115 q 242 242 275 205 q 127 279 208 279 q 116 279 125 279 q 103 278 107 278 l 103 441 q 115 441 107 441 q 127 440 123 440 q 241 478 208 440 q 275 606 275 515 l 275 778 q 292 909 275 870 q 347 970 308 948 q 429 995 380 987 q 551 1003 478 1003 q 577 1002 559 1003 q 606 1002 595 1002 z "},"|":{"ha":694,"x_min":267,"x_max":429,"o":"m 267 1061 l 429 1061 l 429 -328 l 267 -328 l 267 1061 z "},"}":{"ha":694,"x_min":90,"x_max":593,"o":"m 90 1002 q 118 1002 100 1002 q 144 1003 136 1003 q 267 995 218 1003 q 349 970 315 987 q 405 909 388 948 q 421 778 421 870 l 421 606 q 454 477 421 515 q 568 440 488 440 q 581 441 572 440 q 593 441 589 441 l 593 278 q 581 279 589 278 q 568 279 572 279 q 454 242 488 279 q 421 115 421 205 l 421 -58 q 405 -190 421 -151 q 349 -250 388 -229 q 272 -274 318 -267 q 151 -282 225 -282 q 121 -281 142 -282 q 90 -281 101 -281 l 90 -117 q 106 -117 96 -117 q 119 -118 115 -118 q 208 -95 185 -118 q 231 4 231 -71 l 231 168 q 262 303 231 263 q 374 359 293 343 q 261 416 292 376 q 231 553 231 456 l 231 715 q 208 815 231 791 q 122 839 185 839 q 107 838 117 839 q 90 838 96 838 l 90 1002 z "},"~":{"ha":1157,"x_min":121,"x_max":1038,"o":"m 1038 555 l 1038 383 q 906 313 969 336 q 782 290 843 290 q 722 295 751 290 q 665 310 692 300 q 640 319 656 313 q 380 379 467 379 q 261 354 323 379 q 121 272 199 328 l 121 444 q 261 518 197 494 q 383 542 326 542 q 469 534 426 542 q 584 503 512 526 q 618 491 595 499 q 786 453 726 453 q 904 477 843 453 q 1038 555 964 502 z "},"Ä":{"ha":987,"x_min":-79,"x_max":961,"o":"m -79 0 l 418 993 l 750 993 l 961 0 l 692 0 l 652 187 l 304 187 l 210 0 l -79 0 m 404 408 l 614 408 l 568 640 q 558 702 562 675 q 554 753 555 729 q 528 681 540 712 q 509 635 516 650 l 404 408 m 638 1217 q 667 1284 638 1255 q 735 1313 696 1313 q 803 1285 775 1313 q 831 1217 831 1257 q 804 1147 831 1175 q 735 1120 777 1120 q 666 1148 694 1120 q 638 1217 638 1176 m 392 1217 q 421 1284 392 1255 q 489 1313 450 1313 q 556 1285 529 1313 q 584 1217 584 1257 q 557 1147 584 1174 q 489 1120 531 1120 q 420 1148 448 1120 q 392 1217 392 1176 z "},"Å":{"ha":987,"x_min":-79,"x_max":961,"o":"m 509 1160 q 532 1104 509 1127 q 587 1080 555 1080 q 644 1104 621 1080 q 667 1160 667 1127 q 643 1216 667 1192 q 587 1239 620 1239 q 532 1216 555 1239 q 509 1160 509 1193 m 404 408 l 614 408 l 553 726 l 404 408 m -79 0 l 432 993 l 529 990 l 529 993 q 439 1054 473 1008 q 406 1160 406 1099 q 457 1286 406 1235 q 583 1337 509 1337 q 710 1285 659 1337 q 762 1160 762 1234 q 730 1058 762 1102 q 643 993 699 1013 l 643 990 l 734 993 l 961 0 l 692 0 l 652 187 l 304 187 l 210 0 l -79 0 z "},"Ç":{"ha":907,"x_min":60,"x_max":922,"o":"m 922 946 l 878 672 q 753 747 821 722 q 614 772 686 772 q 410 686 490 772 q 330 467 330 600 q 397 280 330 346 q 587 214 465 214 q 696 227 640 214 q 814 265 752 239 l 772 8 q 660 -17 722 -8 q 528 -25 599 -25 q 188 106 315 -25 q 60 456 60 238 q 93 656 60 561 q 189 829 125 751 q 375 968 264 920 q 625 1017 487 1017 q 778 999 704 1017 q 922 946 852 981 m 290 -297 l 326 -207 q 410 -234 370 -225 q 485 -243 450 -243 q 533 -229 515 -243 q 551 -192 551 -215 q 527 -156 551 -167 q 443 -146 502 -146 l 416 -146 l 467 0 l 545 0 l 523 -62 q 642 -93 602 -64 q 681 -180 681 -123 q 631 -296 681 -255 q 490 -338 581 -338 q 405 -328 455 -338 q 290 -297 355 -317 z "},"É":{"ha":757,"x_min":28,"x_max":757,"o":"m 328 221 l 635 221 l 600 0 l 28 0 l 184 993 l 757 993 l 721 764 l 414 764 l 389 602 l 673 602 l 640 386 l 354 386 l 328 221 m 345 1090 l 493 1329 l 703 1329 l 448 1090 l 345 1090 z "},"Ñ":{"ha":1135,"x_min":28,"x_max":1108,"o":"m 28 0 l 184 993 l 488 993 l 697 503 q 706 481 700 496 q 754 340 741 401 l 754 366 q 757 426 754 393 q 766 505 760 458 l 843 993 l 1108 993 l 951 0 l 660 0 l 437 505 q 400 596 413 560 q 379 668 388 632 l 379 640 q 377 583 379 613 q 368 503 374 553 l 293 0 l 28 0 m 919 1322 q 858 1188 896 1230 q 761 1146 820 1146 q 731 1148 745 1146 q 701 1156 716 1151 l 658 1171 q 636 1176 646 1175 q 615 1178 625 1178 q 572 1161 589 1178 q 547 1114 554 1145 l 467 1114 q 527 1246 488 1202 q 626 1291 567 1291 q 655 1288 640 1291 q 688 1280 671 1284 l 732 1265 q 751 1260 742 1262 q 768 1259 760 1259 q 812 1274 795 1259 q 839 1322 828 1289 l 919 1322 z "},"Ö":{"ha":1196,"x_min":60,"x_max":1137,"o":"m 621 772 q 417 685 499 772 q 335 468 335 597 q 400 285 335 353 q 575 216 466 216 q 778 307 694 216 q 861 528 861 397 q 793 704 861 635 q 621 772 726 772 m 559 -26 q 366 3 453 -26 q 211 90 279 32 q 100 244 140 153 q 60 439 60 336 q 94 647 60 550 q 196 822 128 743 q 390 965 275 916 q 637 1015 504 1015 q 999 886 861 1015 q 1137 551 1137 758 q 1102 343 1137 441 q 1000 168 1067 246 q 806 23 918 73 q 559 -26 694 -26 m 718 1217 q 747 1284 718 1255 q 815 1313 776 1313 q 883 1285 855 1313 q 911 1217 911 1257 q 884 1147 911 1175 q 815 1120 857 1120 q 746 1148 774 1120 q 718 1217 718 1176 m 472 1217 q 501 1284 472 1255 q 569 1313 530 1313 q 636 1285 609 1313 q 664 1217 664 1257 q 637 1147 664 1174 q 569 1120 611 1120 q 500 1148 528 1120 q 472 1217 472 1176 z "},"Ü":{"ha":1038,"x_min":72,"x_max":1022,"o":"m 172 993 l 439 993 l 359 494 q 347 405 350 437 q 343 349 343 373 q 379 249 343 285 q 479 214 415 214 q 697 622 633 214 l 699 631 l 755 993 l 1022 993 l 933 429 l 933 429 q 860 170 904 245 q 703 22 804 73 q 464 -29 602 -29 q 179 56 286 -29 q 72 282 72 141 q 80 395 72 324 q 104 570 88 465 l 172 993 m 663 1217 q 691 1284 663 1255 q 760 1313 720 1313 q 827 1285 800 1313 q 855 1217 855 1257 q 828 1147 855 1175 q 760 1120 802 1120 q 690 1148 718 1120 q 663 1217 663 1176 m 416 1217 q 446 1284 416 1255 q 513 1313 475 1313 q 581 1285 553 1313 q 608 1217 608 1257 q 582 1147 608 1174 q 513 1120 555 1120 q 445 1148 473 1120 q 416 1217 416 1176 z "},"á":{"ha":926,"x_min":32,"x_max":864,"o":"m 275 318 q 315 212 275 252 q 421 172 355 172 q 541 228 493 172 q 589 368 589 284 q 549 472 589 432 q 444 511 509 511 q 323 456 371 511 q 275 318 275 401 m 542 92 q 432 4 492 34 q 301 -25 371 -25 q 107 64 183 -25 q 32 294 32 153 q 134 589 32 472 q 390 707 237 707 q 517 677 461 707 q 619 586 574 648 l 635 685 l 864 685 l 755 0 l 530 0 l 542 92 m 399 782 l 547 1021 l 758 1021 l 502 782 l 399 782 z "},"à":{"ha":926,"x_min":32,"x_max":864,"o":"m 275 318 q 315 212 275 252 q 421 172 355 172 q 541 228 493 172 q 589 368 589 284 q 549 472 589 432 q 444 511 509 511 q 323 456 371 511 q 275 318 275 401 m 542 92 q 432 4 492 34 q 301 -25 371 -25 q 107 64 183 -25 q 32 294 32 153 q 134 589 32 472 q 390 707 237 707 q 517 677 461 707 q 619 586 574 648 l 635 685 l 864 685 l 755 0 l 530 0 l 542 92 m 353 1021 l 534 1021 l 638 782 l 542 782 l 353 1021 z "},"â":{"ha":926,"x_min":32,"x_max":864,"o":"m 275 318 q 315 212 275 252 q 421 172 355 172 q 541 228 493 172 q 589 368 589 284 q 549 472 589 432 q 444 511 509 511 q 323 456 371 511 q 275 318 275 401 m 542 92 q 432 4 492 34 q 301 -25 371 -25 q 107 64 183 -25 q 32 294 32 153 q 134 589 32 472 q 390 707 237 707 q 517 677 461 707 q 619 586 574 648 l 635 685 l 864 685 l 755 0 l 530 0 l 542 92 m 736 782 l 642 782 l 555 905 l 406 782 l 302 782 l 470 1021 l 656 1021 l 736 782 z "},"ä":{"ha":926,"x_min":32,"x_max":864,"o":"m 275 318 q 315 212 275 252 q 421 172 355 172 q 541 228 493 172 q 589 368 589 284 q 549 472 589 432 q 444 511 509 511 q 323 456 371 511 q 275 318 275 401 m 542 92 q 432 4 492 34 q 301 -25 371 -25 q 107 64 183 -25 q 32 294 32 153 q 134 589 32 472 q 390 707 237 707 q 517 677 461 707 q 619 586 574 648 l 635 685 l 864 685 l 755 0 l 530 0 l 542 92 m 580 908 q 609 976 580 947 q 677 1004 637 1004 q 745 976 717 1004 q 772 908 772 948 q 746 839 772 866 q 677 811 719 811 q 608 839 635 811 q 580 908 580 867 m 334 908 q 363 976 334 947 q 431 1004 392 1004 q 498 977 471 1004 q 526 908 526 949 q 499 838 526 865 q 431 811 473 811 q 362 839 390 811 q 334 908 334 867 z "},"ã":{"ha":926,"x_min":32,"x_max":864,"o":"m 275 318 q 315 212 275 252 q 421 172 355 172 q 541 228 493 172 q 589 368 589 284 q 549 472 589 432 q 444 511 509 511 q 323 456 371 511 q 275 318 275 401 m 542 92 q 432 4 492 34 q 301 -25 371 -25 q 107 64 183 -25 q 32 294 32 153 q 134 589 32 472 q 390 707 237 707 q 517 677 461 707 q 619 586 574 648 l 635 685 l 864 685 l 755 0 l 530 0 l 542 92 m 779 1014 q 718 880 756 922 q 621 838 680 838 q 591 840 606 838 q 562 847 576 842 l 518 863 q 496 868 507 866 q 475 869 486 869 q 432 853 450 869 q 408 806 414 836 l 327 806 q 388 938 348 894 q 486 982 427 982 q 516 979 500 982 q 549 971 532 976 l 592 957 q 611 952 602 954 q 628 950 621 950 q 672 965 656 950 q 699 1014 688 980 l 779 1014 z "},"å":{"ha":926,"x_min":32,"x_max":864,"o":"m 425 922 q 449 863 425 886 q 509 839 473 839 q 568 863 544 839 q 591 922 591 887 q 567 981 591 957 q 509 1006 543 1006 q 450 981 474 1006 q 425 922 425 957 m 330 922 q 382 1048 330 997 q 509 1100 433 1100 q 634 1048 583 1100 q 686 922 686 997 q 635 796 686 848 q 509 745 583 745 q 382 796 433 745 q 330 922 330 847 m 275 318 q 315 212 275 252 q 421 172 355 172 q 541 228 493 172 q 589 368 589 284 q 549 472 589 432 q 444 511 509 511 q 323 456 371 511 q 275 318 275 401 m 542 92 q 432 4 492 34 q 301 -25 371 -25 q 107 64 183 -25 q 32 294 32 153 q 134 589 32 472 q 390 707 237 707 q 517 677 461 707 q 619 586 574 648 l 635 685 l 864 685 l 755 0 l 530 0 l 542 92 z "},"ç":{"ha":694,"x_min":28,"x_max":636,"o":"m 603 435 q 527 494 566 475 q 447 514 489 514 q 328 459 376 514 q 279 322 279 404 q 317 215 279 254 q 418 175 354 175 q 496 189 458 175 q 571 232 534 203 l 534 7 q 441 -18 486 -10 q 353 -26 396 -26 q 118 67 208 -26 q 28 313 28 161 q 139 600 28 490 q 431 710 250 710 q 541 693 488 710 q 636 644 593 677 l 603 435 m 150 -297 l 186 -207 q 270 -234 230 -225 q 345 -243 310 -243 q 393 -229 375 -243 q 411 -192 411 -215 q 386 -156 411 -167 q 302 -146 361 -146 l 275 -146 l 326 0 l 404 0 l 382 -62 q 501 -93 462 -64 q 541 -180 541 -123 q 491 -296 541 -255 q 350 -338 441 -338 q 265 -328 315 -338 q 150 -297 215 -317 z "},"é":{"ha":829,"x_min":21,"x_max":768,"o":"m 542 424 q 505 512 538 479 q 415 545 471 545 q 325 513 365 545 q 265 424 286 481 l 542 424 m 249 285 l 249 269 q 282 170 249 204 q 379 136 315 136 q 464 155 424 136 q 549 215 503 174 l 679 83 q 544 0 621 28 q 374 -28 468 -28 q 114 61 206 -28 q 21 311 21 151 q 131 597 21 487 q 416 707 241 707 q 672 610 575 707 q 768 353 768 513 q 764 301 768 338 q 762 285 763 290 l 249 285 m 313 782 l 461 1021 l 671 1021 l 416 782 l 313 782 z "},"è":{"ha":829,"x_min":21,"x_max":768,"o":"m 542 424 q 505 512 538 479 q 415 545 471 545 q 325 513 365 545 q 265 424 286 481 l 542 424 m 249 285 l 249 269 q 282 170 249 204 q 379 136 315 136 q 464 155 424 136 q 549 215 503 174 l 679 83 q 544 0 621 28 q 374 -28 468 -28 q 114 61 206 -28 q 21 311 21 151 q 131 597 21 487 q 416 707 241 707 q 672 610 575 707 q 768 353 768 513 q 764 301 768 338 q 762 285 763 290 l 249 285 m 267 1021 l 448 1021 l 552 782 l 456 782 l 267 1021 z "},"ê":{"ha":829,"x_min":21,"x_max":768,"o":"m 542 424 q 505 512 538 479 q 415 545 471 545 q 325 513 365 545 q 265 424 286 481 l 542 424 m 249 285 l 249 269 q 282 170 249 204 q 379 136 315 136 q 464 155 424 136 q 549 215 503 174 l 679 83 q 544 0 621 28 q 374 -28 468 -28 q 114 61 206 -28 q 21 311 21 151 q 131 597 21 487 q 416 707 241 707 q 672 610 575 707 q 768 353 768 513 q 764 301 768 338 q 762 285 763 290 l 249 285 m 650 782 l 556 782 l 469 905 l 320 782 l 216 782 l 384 1021 l 570 1021 l 650 782 z "},"ë":{"ha":829,"x_min":21,"x_max":768,"o":"m 542 424 q 505 512 538 479 q 415 545 471 545 q 325 513 365 545 q 265 424 286 481 l 542 424 m 249 285 l 249 269 q 282 170 249 204 q 379 136 315 136 q 464 155 424 136 q 549 215 503 174 l 679 83 q 544 0 621 28 q 374 -28 468 -28 q 114 61 206 -28 q 21 311 21 151 q 131 597 21 487 q 416 707 241 707 q 672 610 575 707 q 768 353 768 513 q 764 301 768 338 q 762 285 763 290 l 249 285 m 494 908 q 523 976 494 947 q 591 1004 551 1004 q 659 976 631 1004 q 686 908 686 948 q 660 839 686 866 q 591 811 633 811 q 522 839 549 811 q 494 908 494 867 m 248 908 q 277 976 248 947 q 345 1004 306 1004 q 412 977 385 1004 q 439 908 439 949 q 413 838 439 865 q 345 811 387 811 q 276 839 304 811 q 248 908 248 867 z "},"í":{"ha":433,"x_min":18,"x_max":496,"o":"m 18 0 l 126 685 l 370 685 l 261 0 l 18 0 m 137 782 l 286 1021 l 496 1021 l 240 782 l 137 782 z "},"ì":{"ha":433,"x_min":18,"x_max":376,"o":"m 18 0 l 126 685 l 370 685 l 261 0 l 18 0 m 92 1021 l 272 1021 l 376 782 l 280 782 l 92 1021 z "},"î":{"ha":433,"x_min":18,"x_max":475,"o":"m 18 0 l 126 685 l 370 685 l 261 0 l 18 0 m 475 782 l 380 782 l 293 905 l 144 782 l 40 782 l 208 1021 l 394 1021 l 475 782 z "},"ï":{"ha":433,"x_min":18,"x_max":511,"o":"m 18 0 l 126 685 l 370 685 l 261 0 l 18 0 m 318 908 q 347 976 318 947 q 415 1004 376 1004 q 483 976 455 1004 q 511 908 511 948 q 484 839 511 866 q 415 811 457 811 q 346 839 374 811 q 318 908 318 867 m 72 908 q 101 976 72 947 q 169 1004 130 1004 q 236 977 209 1004 q 264 908 264 949 q 237 838 264 865 q 169 811 211 811 q 100 839 128 811 q 72 908 72 867 z "},"ñ":{"ha":875,"x_min":7,"x_max":787,"o":"m 7 0 l 115 685 l 347 685 l 330 578 q 442 676 387 646 q 564 707 498 707 q 729 649 670 707 q 787 489 787 592 q 775 372 787 454 q 774 359 774 364 l 717 0 l 475 0 l 532 363 q 536 393 534 378 q 538 419 538 408 q 514 487 538 464 q 444 510 490 510 q 346 465 381 510 q 294 319 310 419 l 245 0 l 7 0 m 739 1014 q 677 880 715 922 q 581 838 640 838 q 550 840 565 838 q 521 847 536 842 l 477 863 q 455 868 466 866 q 435 869 445 869 q 391 853 409 869 q 367 806 374 836 l 286 806 q 347 938 307 894 q 446 982 387 982 q 475 979 459 982 q 508 971 491 976 l 551 957 q 571 952 562 954 q 587 950 580 950 q 631 965 615 950 q 659 1014 648 980 l 739 1014 z "},"ó":{"ha":851,"x_min":18,"x_max":785,"o":"m 419 511 q 299 452 349 511 q 250 307 250 393 q 286 207 250 244 q 382 170 322 170 q 506 227 457 170 q 554 374 554 284 q 518 474 554 437 q 419 511 481 511 m 18 310 q 132 596 18 484 q 424 708 246 708 q 686 615 588 708 q 785 367 785 522 q 669 83 785 195 q 372 -28 554 -28 q 115 64 212 -28 q 18 310 18 157 m 323 782 l 472 1021 l 682 1021 l 427 782 l 323 782 z "},"ò":{"ha":851,"x_min":18,"x_max":785,"o":"m 419 511 q 299 452 349 511 q 250 307 250 393 q 286 207 250 244 q 382 170 322 170 q 506 227 457 170 q 554 374 554 284 q 518 474 554 437 q 419 511 481 511 m 18 310 q 132 596 18 484 q 424 708 246 708 q 686 615 588 708 q 785 367 785 522 q 669 83 785 195 q 372 -28 554 -28 q 115 64 212 -28 q 18 310 18 157 m 278 1021 l 458 1021 l 563 782 l 467 782 l 278 1021 z "},"ô":{"ha":851,"x_min":18,"x_max":785,"o":"m 419 511 q 299 452 349 511 q 250 307 250 393 q 286 207 250 244 q 382 170 322 170 q 506 227 457 170 q 554 374 554 284 q 518 474 554 437 q 419 511 481 511 m 18 310 q 132 596 18 484 q 424 708 246 708 q 686 615 588 708 q 785 367 785 522 q 669 83 785 195 q 372 -28 554 -28 q 115 64 212 -28 q 18 310 18 157 m 661 782 l 567 782 l 479 905 l 331 782 l 227 782 l 395 1021 l 581 1021 l 661 782 z "},"ö":{"ha":851,"x_min":18,"x_max":785,"o":"m 419 511 q 299 452 349 511 q 250 307 250 393 q 286 207 250 244 q 382 170 322 170 q 506 227 457 170 q 554 374 554 284 q 518 474 554 437 q 419 511 481 511 m 18 310 q 132 596 18 484 q 424 708 246 708 q 686 615 588 708 q 785 367 785 522 q 669 83 785 195 q 372 -28 554 -28 q 115 64 212 -28 q 18 310 18 157 m 505 908 q 533 976 505 947 q 602 1004 562 1004 q 669 976 642 1004 q 697 908 697 948 q 670 839 697 866 q 602 811 644 811 q 532 839 560 811 q 505 908 505 867 m 258 908 q 288 976 258 947 q 355 1004 317 1004 q 423 977 395 1004 q 450 908 450 949 q 424 838 450 865 q 355 811 397 811 q 287 839 315 811 q 258 908 258 867 z "},"õ":{"ha":851,"x_min":18,"x_max":785,"o":"m 419 511 q 299 452 349 511 q 250 307 250 393 q 286 207 250 244 q 382 170 322 170 q 506 227 457 170 q 554 374 554 284 q 518 474 554 437 q 419 511 481 511 m 18 310 q 132 596 18 484 q 424 708 246 708 q 686 615 588 708 q 785 367 785 522 q 669 83 785 195 q 372 -28 554 -28 q 115 64 212 -28 q 18 310 18 157 m 704 1014 q 643 880 681 922 q 546 838 605 838 q 516 840 530 838 q 486 847 501 842 l 443 863 q 421 868 431 866 q 400 869 410 869 q 357 853 374 869 q 332 806 339 836 l 252 806 q 312 938 273 894 q 411 982 352 982 q 440 979 425 982 q 473 971 456 976 l 517 957 q 536 952 527 954 q 553 950 545 950 q 597 965 581 950 q 624 1014 613 980 l 704 1014 z "},"ú":{"ha":848,"x_min":37,"x_max":800,"o":"m 103 685 l 343 685 l 298 401 q 286 308 290 345 q 281 258 281 270 q 304 184 281 210 q 372 158 328 158 q 513 395 477 158 q 517 414 515 408 l 559 685 l 800 685 l 751 375 l 749 361 q 637 66 713 140 q 520 -3 589 20 q 363 -26 450 -26 q 124 42 212 -26 q 37 228 37 111 q 42 296 37 255 q 61 422 47 337 l 103 685 m 334 782 l 483 1021 l 693 1021 l 437 782 l 334 782 z "},"ù":{"ha":848,"x_min":37,"x_max":800,"o":"m 103 685 l 343 685 l 298 401 q 286 308 290 345 q 281 258 281 270 q 304 184 281 210 q 372 158 328 158 q 513 395 477 158 q 517 414 515 408 l 559 685 l 800 685 l 751 375 l 749 361 q 637 66 713 140 q 520 -3 589 20 q 363 -26 450 -26 q 124 42 212 -26 q 37 228 37 111 q 42 296 37 255 q 61 422 47 337 l 103 685 m 289 1021 l 469 1021 l 574 782 l 477 782 l 289 1021 z "},"û":{"ha":848,"x_min":37,"x_max":800,"o":"m 103 685 l 343 685 l 298 401 q 286 308 290 345 q 281 258 281 270 q 304 184 281 210 q 372 158 328 158 q 513 395 477 158 q 517 414 515 408 l 559 685 l 800 685 l 751 375 l 749 361 q 637 66 713 140 q 520 -3 589 20 q 363 -26 450 -26 q 124 42 212 -26 q 37 228 37 111 q 42 296 37 255 q 61 422 47 337 l 103 685 m 672 782 l 578 782 l 490 905 l 342 782 l 237 782 l 406 1021 l 591 1021 l 672 782 z "},"ü":{"ha":848,"x_min":37,"x_max":800,"o":"m 103 685 l 343 685 l 298 401 q 286 308 290 345 q 281 258 281 270 q 304 184 281 210 q 372 158 328 158 q 513 395 477 158 q 517 414 515 408 l 559 685 l 800 685 l 751 375 l 749 361 q 637 66 713 140 q 520 -3 589 20 q 363 -26 450 -26 q 124 42 212 -26 q 37 228 37 111 q 42 296 37 255 q 61 422 47 337 l 103 685 m 515 908 q 544 976 515 947 q 612 1004 573 1004 q 680 976 652 1004 q 708 908 708 948 q 681 839 708 866 q 612 811 654 811 q 543 839 571 811 q 515 908 515 867 m 269 908 q 298 976 269 947 q 366 1004 328 1004 q 434 977 406 1004 q 461 908 461 949 q 435 838 461 865 q 366 811 408 811 q 297 839 326 811 q 269 908 269 867 z "},"†":{"ha":833,"x_min":32,"x_max":814,"o":"m 163 -302 l 278 427 l 32 427 l 68 657 l 315 657 l 368 993 l 611 993 l 558 657 l 814 657 l 778 427 l 521 427 l 406 -302 l 163 -302 z "},"°":{"ha":457,"x_min":18,"x_max":440,"o":"m 229 896 q 150 863 182 896 q 117 785 117 831 q 149 705 117 737 q 229 672 182 672 q 308 705 275 672 q 340 785 340 739 q 308 863 340 831 q 229 896 275 896 m 229 994 q 378 932 317 994 q 440 783 440 871 q 378 634 440 696 q 228 572 316 572 q 79 634 140 572 q 18 783 18 695 q 80 933 18 872 q 229 994 141 994 z "},"¢":{"ha":848,"x_min":89,"x_max":728,"o":"m 689 490 q 604 552 644 532 q 519 571 564 571 q 375 511 431 571 q 319 354 319 450 q 366 237 319 279 q 493 195 412 195 q 566 206 529 195 q 642 240 603 217 l 599 26 q 533 6 566 13 q 465 0 500 0 l 456 0 l 425 -157 l 339 -157 l 371 3 q 164 113 239 22 q 89 345 89 204 q 207 640 89 526 q 515 754 326 754 l 518 754 l 542 875 l 627 875 l 602 746 q 668 724 636 737 q 728 690 699 710 l 689 490 z "},"£":{"ha":848,"x_min":32,"x_max":811,"o":"m 32 135 q 97 198 62 171 q 175 241 133 224 q 220 315 205 276 q 235 400 235 354 l 235 418 l 77 418 l 93 522 l 207 522 q 169 637 180 592 q 157 714 157 683 q 252 921 157 839 q 494 1003 348 1003 q 724 920 642 1003 q 811 679 806 836 l 586 680 q 560 772 583 742 q 493 802 537 802 q 424 778 450 802 q 397 715 397 753 q 414 637 397 701 q 433 522 430 574 l 635 522 l 618 418 l 421 418 q 373 318 404 361 q 298 241 343 274 l 314 241 q 437 219 368 241 q 526 196 506 196 q 576 210 551 196 q 631 257 600 224 l 781 114 q 657 7 718 41 q 529 -28 596 -28 q 390 2 480 -28 q 258 32 299 32 q 201 18 229 32 q 143 -24 173 5 l 32 135 z "},"§":{"ha":833,"x_min":-9,"x_max":783,"o":"m -9 0 l 240 0 q 270 -86 242 -54 q 345 -118 298 -118 q 411 -92 383 -118 q 439 -31 439 -66 q 313 75 439 43 q 282 83 292 81 q 73 183 134 123 q 12 345 12 243 q 65 497 12 433 q 212 587 119 562 q 131 650 158 609 q 103 750 103 691 q 198 941 103 866 q 443 1015 293 1015 q 691 935 600 1015 q 783 718 783 855 l 783 715 l 529 715 l 529 720 q 505 802 529 773 q 435 831 480 831 q 366 807 392 831 q 339 745 339 783 q 481 641 339 677 q 515 632 504 635 q 710 536 646 598 q 774 379 774 473 q 720 219 774 286 q 568 125 666 153 q 649 54 622 96 q 676 -43 676 12 q 577 -225 676 -152 q 325 -298 478 -298 q 82 -217 173 -298 q -9 0 -9 -136 m 262 351 q 297 262 262 297 q 386 228 332 228 q 474 262 440 228 q 509 351 509 297 q 473 439 509 404 q 385 473 437 473 q 298 437 334 473 q 262 351 262 401 z "},"•":{"ha":819,"x_min":208,"x_max":610,"o":"m 208 517 q 267 659 208 600 q 410 717 326 717 q 551 658 492 717 q 610 517 610 600 q 550 375 610 434 q 408 315 491 315 q 267 374 325 315 q 208 517 208 433 z "},"¶":{"ha":694,"x_min":20,"x_max":676,"o":"m 676 1003 l 676 920 l 604 920 l 604 0 l 485 0 l 485 920 l 383 920 l 383 0 l 265 0 l 265 532 q 87 600 154 536 q 20 766 20 665 q 92 938 20 873 q 283 1003 163 1003 l 676 1003 z "},"ß":{"ha":913,"x_min":11,"x_max":859,"o":"m 11 0 l 118 686 q 166 878 138 815 q 243 981 194 940 q 361 1042 292 1021 q 518 1063 429 1063 q 768 992 678 1063 q 859 799 859 922 q 802 638 859 699 q 637 566 745 578 q 797 479 745 538 q 848 323 848 420 q 750 75 848 168 q 485 -18 651 -18 q 409 -12 444 -18 q 342 5 374 -6 l 370 180 q 410 171 390 174 q 450 168 429 168 q 562 218 519 168 q 606 347 606 268 q 558 461 606 422 q 421 503 511 501 l 446 660 q 460 659 452 659 q 484 659 468 659 q 597 691 557 659 q 636 786 636 724 q 605 858 636 830 q 526 886 574 886 q 414 843 450 886 q 355 661 378 800 l 252 0 l 11 0 z "},"®":{"ha":1157,"x_min":72,"x_max":1084,"o":"m 517 693 l 517 545 l 571 545 q 646 563 621 545 q 671 616 671 581 q 645 675 671 656 q 562 693 619 693 l 517 693 m 364 789 l 587 789 q 767 748 705 789 q 828 628 828 707 q 797 534 828 573 q 710 478 766 494 l 833 233 l 665 233 l 561 454 l 517 454 l 517 233 l 364 233 l 364 789 m 579 916 q 422 886 495 916 q 290 799 349 856 q 197 661 229 738 q 165 500 165 585 q 195 345 165 418 q 283 212 225 271 q 418 119 342 151 q 578 86 494 86 q 735 117 660 86 q 871 205 811 148 q 962 339 930 263 q 993 500 993 414 q 963 658 993 584 q 876 790 933 732 q 740 884 816 852 q 579 916 665 916 m 578 1007 q 777 968 684 1007 q 943 854 871 929 q 1048 693 1012 784 q 1084 500 1084 602 q 1046 302 1084 395 q 935 140 1008 210 q 768 31 861 69 q 578 -7 676 -7 q 383 33 475 -7 q 218 147 291 72 q 110 311 147 220 q 72 500 72 401 q 112 696 72 602 q 227 864 152 791 q 387 971 298 935 q 578 1007 477 1007 z "},"©":{"ha":1157,"x_min":72,"x_max":1084,"o":"m 828 604 l 684 604 q 651 675 679 650 q 578 700 624 700 q 490 648 522 700 q 458 501 458 595 q 491 357 458 406 q 585 309 523 309 q 657 336 630 309 q 688 414 684 363 l 833 414 q 761 258 829 317 q 582 199 692 199 q 378 278 453 199 q 302 496 302 358 q 378 719 302 636 q 581 802 453 802 q 755 747 687 802 q 828 604 823 693 m 579 916 q 420 885 494 916 q 288 794 346 854 q 196 658 228 734 q 164 500 164 582 q 196 343 164 419 q 288 208 228 268 q 422 118 347 149 q 579 86 497 86 q 738 118 661 86 q 875 210 814 150 q 963 340 933 267 q 993 500 993 414 q 962 660 993 585 q 873 793 932 734 q 739 884 814 853 q 579 916 664 916 m 578 1007 q 774 969 682 1007 q 939 859 866 931 q 1047 695 1010 787 q 1084 500 1084 604 q 1048 305 1084 396 q 940 144 1011 214 q 772 32 866 71 q 578 -7 679 -7 q 386 32 477 -7 q 221 143 294 71 q 110 307 149 216 q 72 500 72 398 q 111 693 72 600 q 222 860 150 786 q 384 969 294 932 q 578 1007 474 1007 z "},"™":{"ha":1157,"x_min":127,"x_max":996,"o":"m 541 993 l 692 993 l 768 787 l 846 993 l 996 993 l 996 619 l 890 619 l 890 884 l 791 619 l 747 619 l 646 884 l 646 619 l 541 619 l 541 993 m 127 993 l 468 993 l 468 907 l 357 907 l 357 619 l 239 619 l 239 907 l 127 907 l 127 993 z "},"´":{"ha":694,"x_min":268,"x_max":627,"o":"m 268 782 l 416 1021 l 627 1021 l 371 782 l 268 782 z "},"¨":{"ha":694,"x_min":203,"x_max":642,"o":"m 449 908 q 478 976 449 947 q 546 1004 507 1004 q 614 976 586 1004 q 642 908 642 948 q 615 839 642 866 q 546 811 588 811 q 477 839 505 811 q 449 908 449 867 m 203 908 q 232 976 203 947 q 300 1004 261 1004 q 367 977 340 1004 q 395 908 395 949 q 368 838 395 865 q 300 811 342 811 q 231 839 259 811 q 203 908 203 867 z "},"≠":{"ha":1157,"x_min":172,"x_max":985,"o":"m 810 848 l 924 755 l 832 642 l 985 642 l 985 492 l 729 492 l 607 338 l 985 338 l 985 187 l 507 187 l 340 -21 l 225 72 l 317 187 l 172 187 l 172 338 l 416 338 l 541 492 l 172 492 l 172 642 l 643 642 l 810 848 z "},"Æ":{"ha":1272,"x_min":-78,"x_max":1287,"o":"m 625 415 l 581 656 q 571 717 574 690 q 566 768 568 744 q 539 692 551 724 q 522 652 527 661 l 407 415 l 625 415 m -78 0 l 424 993 l 1059 993 l 1108 772 l 794 772 l 832 607 l 1147 607 l 1196 396 l 880 396 l 921 221 l 1236 221 l 1287 0 l 697 0 l 663 200 l 309 200 l 211 0 l -78 0 z "},"Ø":{"ha":1196,"x_min":57,"x_max":1139,"o":"m 419 248 q 485 213 448 224 q 572 201 523 201 q 788 297 701 201 q 875 532 875 392 q 865 607 875 572 q 835 675 855 643 l 419 248 m 774 742 q 698 779 736 767 q 623 791 661 791 q 407 699 492 791 q 321 468 321 607 q 330 389 321 425 q 357 319 338 352 l 774 742 m 134 -49 l 65 12 l 175 122 q 86 270 115 189 q 57 450 57 351 q 94 651 57 552 q 197 829 130 749 q 387 970 275 922 q 635 1018 498 1018 q 807 995 729 1018 q 957 924 886 972 l 1057 1026 l 1125 962 l 1025 861 q 1110 717 1082 795 q 1139 547 1139 639 q 1103 344 1139 442 q 999 165 1067 246 q 805 20 917 69 q 554 -29 692 -29 q 380 -7 456 -29 q 241 61 303 15 l 134 -49 z "},"∞":{"ha":1157,"x_min":132,"x_max":1026,"o":"m 648 380 q 718 312 677 335 q 807 289 758 289 q 906 323 868 289 q 945 411 945 357 q 910 497 945 463 q 823 532 875 532 q 734 497 774 532 q 648 380 694 463 m 510 446 q 441 514 481 491 q 351 536 402 536 q 252 503 290 536 q 214 415 214 469 q 248 329 214 363 q 335 294 283 294 q 425 330 383 294 q 510 446 466 366 m 581 300 q 480 169 534 212 q 361 126 427 126 q 199 209 267 126 q 132 412 132 291 q 192 619 132 540 q 346 699 251 699 q 459 660 407 699 q 578 525 511 622 q 680 657 626 614 q 798 700 733 700 q 959 618 892 700 q 1026 414 1026 536 q 967 206 1026 286 q 812 126 907 126 q 700 163 751 126 q 581 300 649 201 z "},"±":{"ha":1157,"x_min":172,"x_max":985,"o":"m 172 144 l 985 144 l 985 -12 l 172 -12 l 172 144 m 498 842 l 660 842 l 660 625 l 985 625 l 985 468 l 660 468 l 660 252 l 498 252 l 498 468 l 172 468 l 172 625 l 498 625 l 498 842 z "},"≤":{"ha":1157,"x_min":174,"x_max":985,"o":"m 174 144 l 985 144 l 985 -11 l 174 -11 l 174 144 m 983 852 l 983 690 l 457 528 l 983 366 l 983 203 l 174 460 l 174 596 l 983 852 z "},"≥":{"ha":1157,"x_min":174,"x_max":985,"o":"m 174 144 l 985 144 l 985 -11 l 174 -11 l 174 144 m 175 852 l 983 596 l 983 460 l 175 203 l 175 366 l 701 528 l 175 690 l 175 852 z "},"¥":{"ha":921,"x_min":-12,"x_max":997,"o":"m 262 0 l 321 361 l -12 361 l 7 482 l 310 482 l 262 578 l 22 578 l 41 699 l 201 699 l 53 985 l 319 985 l 432 721 q 448 681 439 703 q 471 624 457 659 q 498 675 484 650 q 528 724 512 700 l 711 985 l 997 985 l 778 699 l 942 699 l 922 578 l 685 578 l 611 482 l 907 482 l 888 361 l 562 361 l 505 0 l 262 0 z "},"µ":{"ha":892,"x_min":-31,"x_max":854,"o":"m 131 739 l 374 739 l 319 380 q 313 328 315 353 q 311 283 311 303 q 335 197 311 226 q 408 168 359 168 q 502 215 468 168 q 553 364 536 261 l 612 739 l 854 739 l 736 0 l 518 0 l 530 85 q 470 12 503 34 q 389 -11 436 -11 q 316 10 349 -11 q 264 71 284 31 l 208 -290 l -31 -290 l 131 739 z "},"∂":{"ha":755,"x_min":40,"x_max":715,"o":"m 519 464 q 541 604 534 541 q 549 705 549 667 q 529 806 549 764 q 482 847 509 847 q 393 784 458 847 q 271 721 327 721 q 216 744 238 721 q 195 800 195 766 q 258 885 195 847 q 407 924 321 924 q 632 814 549 924 q 715 515 715 705 q 605 133 715 282 q 322 -17 495 -17 q 119 62 199 -17 q 40 265 40 141 q 121 493 40 403 q 323 583 202 583 q 439 554 392 583 q 519 464 486 526 m 473 361 q 449 480 473 438 q 378 522 424 522 q 269 430 313 522 q 225 195 225 337 q 250 75 225 116 q 322 35 275 35 q 431 126 388 35 q 473 361 473 218 z "},"∑":{"ha":1031,"x_min":33,"x_max":999,"o":"m 49 999 l 954 999 l 954 794 l 386 794 l 790 382 l 392 -60 l 999 -60 l 999 -267 l 33 -267 l 33 -142 l 497 371 l 49 822 l 49 999 z "},"∏":{"ha":1116,"x_min":98,"x_max":1013,"o":"m 98 999 l 1013 999 l 1013 -267 l 742 -267 l 742 772 l 370 772 l 370 -267 l 98 -267 l 98 999 z "},"π":{"ha":1038,"x_min":4,"x_max":1043,"o":"m 1043 739 l 1017 582 l 896 582 l 804 0 l 562 0 l 653 582 l 496 582 l 404 0 l 164 0 l 254 582 l 236 582 q 188 558 208 582 q 163 492 169 534 l 4 492 q 89 686 26 633 q 300 739 151 739 l 1043 739 z "},"∫":{"ha":847,"x_min":35,"x_max":814,"o":"m 245 -168 q 326 284 313 -168 q 329 389 328 353 q 417 899 340 743 q 654 1055 494 1055 q 770 1019 726 1055 q 814 926 814 983 q 786 856 814 883 q 714 829 758 829 q 649 856 671 829 q 627 932 627 882 q 622 965 627 958 q 604 972 616 972 q 520 520 536 972 q 518 458 519 479 q 497 138 511 235 q 458 -28 484 41 q 350 -197 416 -140 q 195 -253 284 -253 q 78 -218 122 -253 q 35 -123 35 -182 q 63 -53 35 -79 q 139 -26 92 -26 q 202 -51 180 -26 q 224 -121 224 -75 q 222 -137 224 -129 q 222 -139 222 -138 q 228 -162 222 -155 q 245 -168 233 -168 z "},"ª":{"ha":694,"x_min":24,"x_max":648,"o":"m 207 736 q 237 663 207 690 q 315 635 267 635 q 406 674 370 635 q 441 772 441 713 q 412 844 441 817 q 334 872 382 872 q 243 833 279 872 q 207 736 207 795 m 407 578 q 324 517 370 538 q 227 496 278 496 q 81 558 138 496 q 24 720 24 621 q 100 926 24 844 q 293 1008 177 1008 q 389 988 347 1008 q 465 924 431 967 l 476 993 l 648 993 l 567 514 l 399 514 l 407 578 z "},"º":{"ha":639,"x_min":14,"x_max":589,"o":"m 315 872 q 224 831 262 872 q 187 729 187 789 q 214 659 187 685 q 286 632 241 632 q 379 672 342 632 q 415 775 415 713 q 388 846 415 821 q 315 872 361 872 m 14 730 q 99 931 14 853 q 318 1010 184 1010 q 515 944 441 1010 q 589 771 589 879 q 503 572 589 650 q 279 494 416 494 q 86 559 159 494 q 14 730 14 624 z "},"Ω":{"ha":1116,"x_min":31,"x_max":1084,"o":"m 859 208 l 1084 208 l 1084 0 l 653 0 l 653 239 q 749 372 715 294 q 783 539 783 450 q 722 735 783 663 q 557 807 661 807 q 392 734 453 807 q 330 538 330 661 q 364 371 330 448 q 461 239 398 293 l 461 0 l 31 0 l 31 208 l 256 208 q 120 364 166 273 q 74 567 74 455 q 207 899 74 772 q 557 1025 339 1025 q 908 899 776 1025 q 1040 567 1040 774 q 994 364 1040 455 q 859 208 948 273 z "},"æ":{"ha":1267,"x_min":-7,"x_max":1206,"o":"m 1200 285 l 707 285 l 707 272 q 739 171 707 205 q 833 136 770 136 q 921 155 880 136 q 1007 215 962 174 l 1137 83 q 1004 1 1080 30 q 846 -28 929 -28 q 671 2 741 -28 q 558 96 602 33 q 443 2 511 32 q 279 -28 376 -28 q 67 31 140 -28 q -7 201 -7 90 q 69 373 -7 309 q 269 437 145 437 q 372 421 324 437 q 458 374 419 406 l 458 419 q 413 508 458 476 q 286 541 367 541 q 186 525 238 541 q 81 479 134 509 l 117 663 q 224 695 169 684 q 343 705 280 705 q 496 669 431 705 q 602 564 562 633 q 718 670 648 634 q 875 705 787 705 q 1115 611 1024 705 q 1206 361 1206 516 q 1204 324 1206 343 q 1200 285 1203 305 m 991 424 q 957 511 990 478 q 869 545 923 545 q 784 513 821 545 q 725 424 746 481 l 991 424 m 221 204 q 247 146 221 165 q 325 126 273 126 q 400 147 372 126 q 428 203 428 168 q 400 259 428 238 q 323 281 372 281 q 249 260 277 281 q 221 204 221 239 z "},"ø":{"ha":851,"x_min":18,"x_max":785,"o":"m 77 -58 l 21 -5 l 102 79 q 39 180 60 121 q 18 310 18 238 q 133 596 18 485 q 429 708 248 708 q 543 694 492 708 q 637 653 594 681 l 707 728 l 764 679 l 696 604 q 763 499 741 557 q 785 371 785 441 q 669 84 785 197 q 371 -28 553 -28 q 260 -13 313 -28 q 160 31 208 1 l 77 -58 m 497 497 q 461 513 479 508 q 425 518 444 518 q 294 458 347 518 q 241 307 241 397 q 245 271 241 288 q 256 240 249 254 l 497 497 m 542 449 l 298 186 q 337 170 317 175 q 379 164 357 164 q 509 224 459 164 q 559 379 559 284 q 555 410 559 393 q 542 449 551 426 z "},"¿":{"ha":783,"x_min":46,"x_max":718,"o":"m 572 671 l 529 403 q 510 404 521 404 q 481 404 500 404 q 331 371 382 404 q 279 272 279 337 q 309 208 279 234 q 382 182 338 182 q 453 205 425 182 q 490 269 482 229 l 718 269 q 608 53 701 132 q 370 -26 515 -26 q 137 56 227 -26 q 46 265 46 138 q 120 461 46 384 q 309 539 194 539 l 326 539 l 347 671 l 572 671 m 625 882 q 585 787 625 827 q 490 747 545 747 q 395 786 433 747 q 357 882 357 824 q 394 979 357 941 q 490 1017 432 1017 q 588 979 550 1017 q 625 882 625 942 z "},"¡":{"ha":498,"x_min":39,"x_max":441,"o":"m 293 -25 l 39 -25 l 147 661 l 401 661 l 293 -25 m 441 879 q 401 783 441 823 q 304 742 361 742 q 208 782 247 742 q 168 879 168 821 q 208 976 168 937 q 304 1015 247 1015 q 401 975 361 1015 q 441 879 441 935 z "},"¬":{"ha":1157,"x_min":172,"x_max":985,"o":"m 172 587 l 985 587 l 985 248 l 829 248 l 829 433 l 172 433 l 172 587 z "},"√":{"ha":926,"x_min":52,"x_max":929,"o":"m 783 1162 l 929 1162 l 929 1061 l 864 1061 l 464 -28 l 383 -28 l 175 546 l 77 509 l 52 596 l 296 682 l 447 252 l 783 1162 z "},"ƒ":{"ha":848,"x_min":65,"x_max":762,"o":"m 104 -79 q 125 -83 115 -82 q 146 -85 135 -85 q 261 147 224 -85 q 269 199 267 180 l 314 468 l 196 468 l 224 636 l 342 636 l 359 739 q 449 945 386 886 q 636 1004 512 1004 q 697 1000 666 1004 q 762 985 728 995 l 732 808 q 694 821 712 817 q 661 825 677 825 q 608 802 627 825 q 579 729 588 779 l 562 636 l 703 636 l 675 468 l 534 468 l 476 117 q 437 -72 456 -10 q 393 -171 419 -133 q 308 -240 362 -217 q 175 -264 253 -264 q 124 -260 151 -264 q 65 -250 98 -257 l 104 -79 z "},"≈":{"ha":1157,"x_min":121,"x_max":1038,"o":"m 1038 408 l 1038 236 q 905 165 966 188 q 782 143 843 143 q 590 188 721 143 q 380 232 459 232 q 263 207 325 232 q 121 125 202 182 l 121 297 q 262 371 196 347 q 395 395 329 395 q 601 350 473 395 q 786 306 730 306 q 901 330 842 306 q 1038 408 960 353 m 1038 703 l 1038 530 q 904 461 965 483 q 783 439 843 439 q 591 483 722 439 q 380 526 460 526 q 264 502 323 526 q 121 419 204 477 l 121 593 q 262 666 197 643 q 395 689 328 689 q 601 645 473 689 q 786 600 730 600 q 902 624 842 600 q 1038 703 961 648 z "},"∆":{"ha":996,"x_min":-1,"x_max":999,"o":"m 497 718 l 319 193 l 676 193 l 497 718 m 364 999 l 632 999 l 999 0 l -1 0 l 364 999 z "},"«":{"ha":739,"x_min":20,"x_max":699,"o":"m 228 26 l 20 353 l 273 656 l 392 561 l 208 346 l 359 122 l 228 26 m 529 26 l 321 353 l 576 656 l 699 557 l 511 346 l 656 117 l 529 26 z "},"»":{"ha":739,"x_min":-8,"x_max":672,"o":"m 464 656 l 672 329 l 416 26 l 298 121 l 482 335 l 330 558 l 464 656 m 161 656 l 370 329 l 115 26 l -8 123 l 180 335 l 35 564 l 161 656 z "},"…":{"ha":1389,"x_min":45,"x_max":1244,"o":"m 45 113 q 84 209 45 169 q 181 249 124 249 q 278 210 239 249 q 318 113 318 170 q 279 15 318 54 q 182 -25 239 -25 q 85 16 125 -25 q 45 113 45 56 m 507 113 q 547 209 507 169 q 644 249 587 249 q 741 210 701 249 q 781 113 781 170 q 741 15 781 54 q 645 -25 702 -25 q 548 16 588 -25 q 507 113 507 56 m 971 113 q 1011 209 971 169 q 1107 249 1050 249 q 1205 210 1165 249 q 1244 113 1244 170 q 1205 15 1244 54 q 1109 -25 1166 -25 q 1011 16 1052 -25 q 971 113 971 56 z "}," ":{"ha":848,"x_min":0,"x_max":0,"o":""},"À":{"ha":987,"x_min":-79,"x_max":961,"o":"m -79 0 l 418 993 l 750 993 l 961 0 l 692 0 l 652 187 l 304 187 l 210 0 l -79 0 m 404 408 l 614 408 l 568 640 q 558 702 562 675 q 554 753 555 729 q 528 681 540 712 q 509 635 516 650 l 404 408 m 412 1329 l 592 1329 l 696 1090 l 600 1090 l 412 1329 z "},"Ã":{"ha":987,"x_min":-79,"x_max":961,"o":"m -79 0 l 418 993 l 750 993 l 961 0 l 692 0 l 652 187 l 304 187 l 210 0 l -79 0 m 404 408 l 614 408 l 568 640 q 558 702 562 675 q 554 753 555 729 q 528 681 540 712 q 509 635 516 650 l 404 408 m 838 1322 q 777 1188 814 1230 q 680 1146 739 1146 q 649 1148 664 1146 q 620 1156 635 1151 l 576 1171 q 554 1176 565 1175 q 534 1178 544 1178 q 490 1161 508 1178 q 466 1114 473 1145 l 385 1114 q 446 1246 406 1202 q 545 1291 486 1291 q 574 1288 558 1291 q 607 1280 590 1284 l 650 1265 q 670 1260 661 1262 q 686 1259 679 1259 q 730 1274 714 1259 q 758 1322 747 1289 l 838 1322 z "},"Õ":{"ha":1196,"x_min":60,"x_max":1137,"o":"m 621 772 q 417 685 499 772 q 335 468 335 597 q 400 285 335 353 q 575 216 466 216 q 778 307 694 216 q 861 528 861 397 q 793 704 861 635 q 621 772 726 772 m 559 -26 q 366 3 453 -26 q 211 90 279 32 q 100 244 140 153 q 60 439 60 336 q 94 647 60 550 q 196 822 128 743 q 390 965 275 916 q 637 1015 504 1015 q 999 886 861 1015 q 1137 551 1137 758 q 1102 343 1137 441 q 1000 168 1067 246 q 806 23 918 73 q 559 -26 694 -26 m 918 1322 q 857 1188 895 1230 q 760 1146 819 1146 q 729 1148 744 1146 q 700 1156 715 1151 l 656 1171 q 634 1176 645 1175 q 614 1178 624 1178 q 570 1161 588 1178 q 546 1114 553 1145 l 465 1114 q 526 1246 486 1202 q 625 1291 566 1291 q 654 1288 638 1291 q 687 1280 670 1284 l 730 1265 q 750 1260 741 1262 q 766 1259 759 1259 q 810 1274 794 1259 q 838 1322 827 1289 l 918 1322 z "},"Œ":{"ha":1495,"x_min":56,"x_max":1497,"o":"m 619 789 q 405 696 491 789 q 319 467 319 604 q 388 274 319 346 q 572 201 456 201 q 785 297 698 201 q 872 530 872 393 q 801 716 872 644 q 619 789 729 789 m 1497 993 l 1461 764 l 1154 764 l 1128 602 l 1414 602 l 1379 386 l 1093 386 l 1068 221 l 1375 221 l 1340 0 l 783 0 l 799 104 q 673 8 743 39 q 513 -24 602 -24 q 182 107 309 -24 q 56 447 56 237 q 91 649 56 553 q 192 823 125 746 q 381 967 271 917 q 618 1018 492 1018 q 800 984 724 1018 q 925 879 876 949 l 942 993 l 1497 993 z "},"œ":{"ha":1337,"x_min":18,"x_max":1280,"o":"m 1276 285 l 775 285 l 775 272 q 807 171 775 205 q 901 136 839 136 q 989 155 948 136 q 1075 215 1030 174 l 1206 83 q 1073 1 1147 29 q 916 -28 998 -28 q 755 -6 823 -28 q 642 61 688 16 q 523 -6 590 16 q 374 -28 456 -28 q 116 63 214 -28 q 18 300 18 154 q 132 595 18 481 q 427 708 245 708 q 571 685 506 708 q 684 616 636 662 q 803 685 739 663 q 940 708 867 708 q 1186 612 1093 708 q 1280 361 1280 517 q 1279 323 1280 349 q 1276 285 1277 298 m 1068 424 q 1030 513 1064 481 q 942 545 997 545 q 852 513 892 545 q 791 424 812 481 l 1068 424 m 427 532 q 298 467 350 532 q 245 304 245 401 q 283 190 245 232 q 383 149 320 149 q 513 213 463 149 q 564 378 564 277 q 527 491 564 450 q 427 532 491 532 z "},"–":{"ha":694,"x_min":-39,"x_max":684,"o":"m -39 252 l -11 431 l 684 431 l 656 252 l -39 252 z "},"—":{"ha":1389,"x_min":-39,"x_max":1378,"o":"m -39 252 l -11 431 l 1378 431 l 1350 252 l -39 252 z "},"“":{"ha":907,"x_min":25,"x_max":970,"o":"m 970 993 l 724 578 l 435 578 l 761 993 l 970 993 m 559 993 l 313 578 l 25 578 l 351 993 l 559 993 z "},"”":{"ha":907,"x_min":26,"x_max":971,"o":"m 26 578 l 273 993 l 561 993 l 235 578 l 26 578 m 435 578 l 682 993 l 971 993 l 644 578 l 435 578 z "},"‘":{"ha":498,"x_min":24,"x_max":558,"o":"m 558 993 l 313 578 l 24 578 l 350 993 l 558 993 z "},"’":{"ha":498,"x_min":25,"x_max":559,"o":"m 25 578 l 272 993 l 559 993 l 233 578 l 25 578 z "},"÷":{"ha":1157,"x_min":172,"x_max":985,"o":"m 579 252 q 658 219 625 252 q 690 139 690 186 q 658 60 690 93 q 579 28 626 28 q 499 60 532 28 q 467 139 467 93 q 500 218 467 185 q 579 252 533 252 m 172 493 l 985 493 l 985 336 l 172 336 l 172 493 m 579 802 q 657 768 625 802 q 690 689 690 735 q 657 610 690 643 q 578 578 625 578 q 499 610 531 578 q 467 689 467 643 q 500 768 467 735 q 579 802 533 802 z "},"◊":{"ha":686,"x_min":4,"x_max":682,"o":"m 343 956 l 82 401 l 343 -158 l 604 401 l 343 956 m 343 1121 l 682 401 l 343 -323 l 4 401 l 343 1121 z "},"ÿ":{"ha":729,"x_min":-24,"x_max":761,"o":"m 178 35 l -17 685 l 233 685 l 293 389 q 297 372 294 383 q 311 270 310 312 q 331 327 319 296 q 359 392 342 357 l 501 685 l 761 685 l 229 -302 l -24 -302 l 178 35 m 467 908 q 496 976 467 947 q 564 1004 525 1004 q 632 976 604 1004 q 660 908 660 948 q 633 839 660 866 q 564 811 606 811 q 495 839 523 811 q 467 908 467 867 m 221 908 q 250 976 221 947 q 318 1004 279 1004 q 386 977 358 1004 q 413 908 413 949 q 387 838 413 865 q 318 811 360 811 q 249 839 277 811 q 221 908 221 867 z "},"Ÿ":{"ha":810,"x_min":-28,"x_max":942,"o":"m 182 0 l 252 443 l -28 993 l 268 993 l 376 739 q 394 695 385 720 q 412 642 404 670 q 442 708 431 685 q 460 742 453 732 l 636 993 l 942 993 l 518 440 l 449 0 l 182 0 m 549 1217 q 577 1284 549 1255 q 646 1313 606 1313 q 713 1285 686 1313 q 741 1217 741 1257 q 714 1147 741 1175 q 646 1120 688 1120 q 576 1148 604 1120 q 549 1217 549 1176 m 302 1217 q 332 1284 302 1255 q 399 1313 361 1313 q 467 1285 439 1313 q 494 1217 494 1257 q 468 1147 494 1174 q 399 1120 441 1120 q 331 1148 359 1120 q 302 1217 302 1176 z "},"∕":{"ha":232,"x_min":-232,"x_max":463,"o":"m -232 -26 l 321 1003 l 463 1003 l -86 -26 l -232 -26 z "},"¤":{"ha":842,"x_min":41,"x_max":803,"o":"m 422 777 q 298 724 350 777 q 245 600 245 672 q 297 475 245 527 q 422 424 349 424 q 547 475 495 424 q 599 600 599 527 q 547 724 599 672 q 422 777 495 777 m 121 979 l 258 843 q 335 881 295 868 q 421 893 376 893 q 509 881 468 893 q 586 843 551 868 l 722 979 l 803 900 l 667 761 q 702 685 690 725 q 714 600 714 645 q 702 515 714 555 q 667 439 690 475 l 803 301 l 722 221 l 586 358 q 510 321 551 333 q 422 309 470 309 q 335 320 375 309 q 258 358 296 332 l 121 221 l 41 301 l 178 439 q 141 515 153 475 q 129 600 129 555 q 141 686 129 646 q 178 761 154 726 l 41 900 l 121 979 z "},"‹":{"ha":437,"x_min":20,"x_max":396,"o":"m 228 26 l 20 353 l 273 656 l 396 557 l 208 346 l 353 117 l 228 26 z "},"›":{"ha":437,"x_min":-8,"x_max":370,"o":"m 161 656 l 370 329 l 114 26 l -8 123 l 179 335 l 35 564 l 161 656 z "},"":{"ha":950,"x_min":5,"x_max":921,"o":"m 778 0 l 534 0 l 643 685 l 886 685 l 778 0 m 660 889 q 698 980 660 942 q 790 1018 736 1018 q 884 981 846 1018 q 921 889 921 945 q 883 796 921 834 q 790 758 844 758 q 698 797 736 758 q 660 889 660 836 m 39 0 l 119 510 l 5 510 l 33 685 l 147 685 l 158 754 q 163 781 160 763 q 224 970 184 920 q 320 1042 261 1017 q 449 1068 378 1068 q 517 1061 481 1068 q 591 1039 553 1054 l 561 843 q 522 858 541 852 q 486 863 503 863 q 426 838 446 863 q 396 746 406 812 l 386 685 l 536 685 l 509 510 l 359 510 l 279 0 l 39 0 z "},"":{"ha":950,"x_min":5,"x_max":945,"o":"m 701 1051 l 945 1051 l 778 0 l 534 0 l 701 1051 m 39 0 l 119 510 l 5 510 l 33 685 l 147 685 l 158 754 q 163 781 160 763 q 224 970 184 920 q 320 1042 261 1017 q 449 1068 378 1068 q 517 1061 481 1068 q 591 1039 553 1054 l 561 843 q 522 858 541 852 q 486 863 503 863 q 426 838 446 863 q 396 746 406 812 l 386 685 l 536 685 l 509 510 l 359 510 l 279 0 l 39 0 z "},"‡":{"ha":833,"x_min":-36,"x_max":821,"o":"m 215 -8 l -36 -8 l -1 212 l 250 212 l 293 482 l 41 482 l 77 704 l 328 704 l 374 993 l 604 993 l 558 704 l 821 704 l 786 482 l 522 482 l 481 212 l 743 212 l 708 -8 l 444 -8 l 399 -302 l 168 -302 l 215 -8 z "},"·":{"ha":425,"x_min":72,"x_max":347,"o":"m 72 488 q 113 584 72 543 q 210 625 153 625 q 307 585 267 625 q 347 488 347 545 q 307 390 347 429 q 210 351 267 351 q 113 392 153 351 q 72 488 72 432 z "},"‚":{"ha":498,"x_min":-122,"x_max":412,"o":"m -122 -197 l 123 218 l 412 218 l 86 -197 l -122 -197 z "},"„":{"ha":907,"x_min":-134,"x_max":810,"o":"m -134 -197 l 113 218 l 401 218 l 75 -197 l -134 -197 m 273 -197 l 521 218 l 810 218 l 484 -197 l 273 -197 z "},"‰":{"ha":1678,"x_min":43,"x_max":1630,"o":"m 1372 85 q 1441 150 1412 85 q 1470 307 1470 216 q 1458 369 1470 350 q 1422 387 1447 387 q 1353 322 1381 387 q 1324 163 1324 256 q 1335 103 1324 121 q 1372 85 1347 85 m 1630 275 q 1555 58 1630 144 q 1364 -28 1479 -28 q 1214 29 1271 -28 q 1157 178 1157 85 q 1231 400 1157 315 q 1423 486 1305 486 q 1575 429 1519 486 q 1630 275 1630 372 m 832 85 q 900 150 871 85 q 929 307 929 216 q 918 369 929 350 q 882 387 907 387 q 812 322 842 387 q 783 163 783 256 q 795 103 783 121 q 832 85 806 85 m 1095 275 q 1019 58 1095 144 q 828 -28 943 -28 q 677 29 734 -28 q 621 178 621 85 q 695 400 621 315 q 888 486 769 486 q 1039 429 983 486 q 1095 275 1095 372 m 260 602 q 328 667 299 602 q 357 823 357 732 q 346 885 357 867 q 310 903 335 903 q 240 838 269 903 q 211 679 211 772 q 222 620 211 638 q 260 602 234 602 m 518 791 q 444 576 518 661 q 256 490 369 490 q 100 546 157 490 q 43 700 43 602 q 117 920 43 836 q 310 1004 191 1004 q 461 947 405 1004 q 518 791 518 889 m 200 -26 l 814 1003 l 942 1003 l 325 -26 l 200 -26 z "},"Â":{"ha":987,"x_min":-79,"x_max":961,"o":"m -79 0 l 418 993 l 750 993 l 961 0 l 692 0 l 652 187 l 304 187 l 210 0 l -79 0 m 404 408 l 614 408 l 568 640 q 558 702 562 675 q 554 753 555 729 q 528 681 540 712 q 509 635 516 650 l 404 408 m 795 1090 l 701 1090 l 613 1214 l 465 1090 l 360 1090 l 528 1329 l 714 1329 l 795 1090 z "},"Ê":{"ha":757,"x_min":28,"x_max":757,"o":"m 328 221 l 635 221 l 600 0 l 28 0 l 184 993 l 757 993 l 721 764 l 414 764 l 389 602 l 673 602 l 640 386 l 354 386 l 328 221 m 682 1090 l 588 1090 l 500 1214 l 352 1090 l 248 1090 l 416 1329 l 602 1329 l 682 1090 z "},"Á":{"ha":987,"x_min":-79,"x_max":961,"o":"m -79 0 l 418 993 l 750 993 l 961 0 l 692 0 l 652 187 l 304 187 l 210 0 l -79 0 m 404 408 l 614 408 l 568 640 q 558 702 562 675 q 554 753 555 729 q 528 681 540 712 q 509 635 516 650 l 404 408 m 457 1090 l 606 1329 l 816 1329 l 560 1090 l 457 1090 z "},"Ë":{"ha":757,"x_min":28,"x_max":757,"o":"m 328 221 l 635 221 l 600 0 l 28 0 l 184 993 l 757 993 l 721 764 l 414 764 l 389 602 l 673 602 l 640 386 l 354 386 l 328 221 m 526 1217 q 554 1284 526 1255 q 623 1313 583 1313 q 690 1285 663 1313 q 718 1217 718 1257 q 691 1147 718 1175 q 623 1120 665 1120 q 553 1148 581 1120 q 526 1217 526 1176 m 279 1217 q 309 1284 279 1255 q 376 1313 338 1313 q 444 1285 416 1313 q 471 1217 471 1257 q 445 1147 471 1174 q 376 1120 418 1120 q 308 1148 336 1120 q 279 1217 279 1176 z "},"È":{"ha":757,"x_min":28,"x_max":757,"o":"m 328 221 l 635 221 l 600 0 l 28 0 l 184 993 l 757 993 l 721 764 l 414 764 l 389 602 l 673 602 l 640 386 l 354 386 l 328 221 m 299 1329 l 479 1329 l 584 1090 l 488 1090 l 299 1329 z "},"Í":{"ha":492,"x_min":32,"x_max":568,"o":"m 32 0 l 189 993 l 460 993 l 302 0 l 32 0 m 210 1090 l 358 1329 l 568 1329 l 313 1090 l 210 1090 z "},"Î":{"ha":492,"x_min":32,"x_max":547,"o":"m 32 0 l 189 993 l 460 993 l 302 0 l 32 0 m 547 1090 l 453 1090 l 366 1214 l 217 1090 l 113 1090 l 281 1329 l 467 1329 l 547 1090 z "},"Ï":{"ha":492,"x_min":32,"x_max":583,"o":"m 32 0 l 189 993 l 460 993 l 302 0 l 32 0 m 391 1217 q 419 1284 391 1255 q 488 1313 448 1313 q 555 1285 528 1313 q 583 1217 583 1257 q 556 1147 583 1175 q 488 1120 530 1120 q 418 1148 446 1120 q 391 1217 391 1176 m 144 1217 q 174 1284 144 1255 q 241 1313 203 1313 q 309 1285 281 1313 q 336 1217 336 1257 q 310 1147 336 1174 q 241 1120 283 1120 q 173 1148 201 1120 q 144 1217 144 1176 z "},"Ì":{"ha":492,"x_min":32,"x_max":460,"o":"m 32 0 l 189 993 l 460 993 l 302 0 l 32 0 m 164 1329 l 345 1329 l 449 1090 l 353 1090 l 164 1329 z "},"Ó":{"ha":1196,"x_min":60,"x_max":1137,"o":"m 621 772 q 417 685 499 772 q 335 468 335 597 q 400 285 335 353 q 575 216 466 216 q 778 307 694 216 q 861 528 861 397 q 793 704 861 635 q 621 772 726 772 m 559 -26 q 366 3 453 -26 q 211 90 279 32 q 100 244 140 153 q 60 439 60 336 q 94 647 60 550 q 196 822 128 743 q 390 965 275 916 q 637 1015 504 1015 q 999 886 861 1015 q 1137 551 1137 758 q 1102 343 1137 441 q 1000 168 1067 246 q 806 23 918 73 q 559 -26 694 -26 m 537 1090 l 686 1329 l 896 1329 l 640 1090 l 537 1090 z "},"Ô":{"ha":1196,"x_min":60,"x_max":1137,"o":"m 621 772 q 417 685 499 772 q 335 468 335 597 q 400 285 335 353 q 575 216 466 216 q 778 307 694 216 q 861 528 861 397 q 793 704 861 635 q 621 772 726 772 m 559 -26 q 366 3 453 -26 q 211 90 279 32 q 100 244 140 153 q 60 439 60 336 q 94 647 60 550 q 196 822 128 743 q 390 965 275 916 q 637 1015 504 1015 q 999 886 861 1015 q 1137 551 1137 758 q 1102 343 1137 441 q 1000 168 1067 246 q 806 23 918 73 q 559 -26 694 -26 m 875 1090 l 781 1090 l 693 1214 l 545 1090 l 440 1090 l 608 1329 l 794 1329 l 875 1090 z "},"":{"ha":1097,"x_min":77,"x_max":1021,"o":"m 567 825 q 566 834 566 829 q 566 850 566 840 q 630 1005 566 934 q 790 1095 694 1077 q 791 1079 791 1088 q 791 1053 791 1070 q 721 893 791 964 q 583 823 651 823 l 578 823 q 573 824 576 823 q 567 825 570 825 m 1021 273 q 882 41 943 106 q 743 -24 820 -24 q 654 -1 709 -24 q 571 21 599 21 q 482 -1 541 21 q 396 -24 424 -24 q 309 6 353 -24 q 221 96 265 36 q 114 296 152 191 q 77 500 77 401 q 161 742 77 648 q 380 835 246 835 q 486 812 427 835 q 570 789 545 789 q 652 812 593 789 q 755 836 711 836 q 890 809 830 836 q 999 725 949 782 q 896 626 930 681 q 863 503 863 572 q 903 367 863 426 q 1021 273 944 308 z "},"Ò":{"ha":1196,"x_min":60,"x_max":1137,"o":"m 621 772 q 417 685 499 772 q 335 468 335 597 q 400 285 335 353 q 575 216 466 216 q 778 307 694 216 q 861 528 861 397 q 793 704 861 635 q 621 772 726 772 m 559 -26 q 366 3 453 -26 q 211 90 279 32 q 100 244 140 153 q 60 439 60 336 q 94 647 60 550 q 196 822 128 743 q 390 965 275 916 q 637 1015 504 1015 q 999 886 861 1015 q 1137 551 1137 758 q 1102 343 1137 441 q 1000 168 1067 246 q 806 23 918 73 q 559 -26 694 -26 m 492 1329 l 672 1329 l 777 1090 l 680 1090 l 492 1329 z "},"Ú":{"ha":1038,"x_min":72,"x_max":1022,"o":"m 172 993 l 439 993 l 359 494 q 347 405 350 437 q 343 349 343 373 q 379 249 343 285 q 479 214 415 214 q 697 622 633 214 l 699 631 l 755 993 l 1022 993 l 933 429 l 933 429 q 860 170 904 245 q 703 22 804 73 q 464 -29 602 -29 q 179 56 286 -29 q 72 282 72 141 q 80 395 72 324 q 104 570 88 465 l 172 993 m 481 1090 l 630 1329 l 840 1329 l 585 1090 l 481 1090 z "},"Û":{"ha":1038,"x_min":72,"x_max":1022,"o":"m 172 993 l 439 993 l 359 494 q 347 405 350 437 q 343 349 343 373 q 379 249 343 285 q 479 214 415 214 q 697 622 633 214 l 699 631 l 755 993 l 1022 993 l 933 429 l 933 429 q 860 170 904 245 q 703 22 804 73 q 464 -29 602 -29 q 179 56 286 -29 q 72 282 72 141 q 80 395 72 324 q 104 570 88 465 l 172 993 m 819 1090 l 725 1090 l 637 1214 l 489 1090 l 385 1090 l 553 1329 l 739 1329 l 819 1090 z "},"Ù":{"ha":1038,"x_min":72,"x_max":1022,"o":"m 172 993 l 439 993 l 359 494 q 347 405 350 437 q 343 349 343 373 q 379 249 343 285 q 479 214 415 214 q 697 622 633 214 l 699 631 l 755 993 l 1022 993 l 933 429 l 933 429 q 860 170 904 245 q 703 22 804 73 q 464 -29 602 -29 q 179 56 286 -29 q 72 282 72 141 q 80 395 72 324 q 104 570 88 465 l 172 993 m 436 1329 l 616 1329 l 721 1090 l 625 1090 l 436 1329 z "},"ı":{"ha":433,"x_min":18,"x_max":370,"o":"m 18 0 l 126 685 l 370 685 l 261 0 l 18 0 z "},"ˆ":{"ha":694,"x_min":171,"x_max":606,"o":"m 606 782 l 511 782 l 424 905 l 275 782 l 171 782 l 339 1021 l 525 1021 l 606 782 z "},"˜":{"ha":694,"x_min":196,"x_max":648,"o":"m 648 1014 q 587 880 625 922 q 490 838 549 838 q 460 840 475 838 q 431 847 446 842 l 387 863 q 365 868 376 866 q 345 869 355 869 q 301 853 319 869 q 277 806 283 836 l 196 806 q 257 938 217 894 q 355 982 296 982 q 385 979 369 982 q 418 971 401 976 l 461 957 q 480 952 471 954 q 497 950 490 950 q 541 965 525 950 q 568 1014 557 980 l 648 1014 z "},"¯":{"ha":694,"x_min":205,"x_max":640,"o":"m 205 850 l 224 965 l 640 965 l 623 850 l 205 850 z "},"˘":{"ha":694,"x_min":228,"x_max":659,"o":"m 229 1013 l 318 1013 l 318 1006 q 342 939 318 960 q 416 917 367 917 q 508 941 471 917 q 567 1013 545 964 l 659 1013 q 564 856 628 908 q 404 803 500 803 q 272 848 317 803 q 228 983 228 894 q 229 998 228 988 q 229 1013 229 1008 z "},"˙":{"ha":694,"x_min":321,"x_max":522,"o":"m 321 908 q 352 978 321 947 q 422 1008 382 1008 q 493 979 464 1008 q 522 908 522 950 q 494 836 522 865 q 422 807 466 807 q 351 837 380 807 q 321 908 321 867 z "},"˚":{"ha":694,"x_min":250,"x_max":618,"o":"m 351 953 q 375 893 351 918 q 435 869 399 869 q 493 893 470 869 q 517 953 517 917 q 493 1013 517 988 q 435 1038 469 1038 q 375 1013 399 1038 q 351 953 351 989 m 250 954 q 303 1084 250 1031 q 433 1137 356 1137 q 564 1084 511 1137 q 618 954 618 1031 q 564 823 618 877 q 433 770 511 770 q 303 823 356 770 q 250 954 250 876 z "},"¸":{"ha":694,"x_min":64,"x_max":454,"o":"m 64 -297 l 100 -207 q 184 -234 144 -225 q 258 -243 224 -243 q 307 -229 289 -243 q 325 -192 325 -215 q 300 -156 325 -167 q 216 -146 275 -146 l 189 -146 l 240 0 l 318 0 l 296 -62 q 415 -93 376 -64 q 454 -180 454 -123 q 405 -296 454 -255 q 264 -338 355 -338 q 179 -328 229 -338 q 64 -297 129 -317 z "},"˝":{"ha":694,"x_min":237,"x_max":750,"o":"m 441 782 l 566 1021 l 750 1021 l 524 782 l 441 782 m 237 782 l 330 1021 l 510 1021 l 313 782 l 237 782 z "},"˛":{"ha":694,"x_min":111,"x_max":367,"o":"m 315 0 q 254 -71 273 -39 q 235 -134 235 -102 q 247 -174 235 -161 q 286 -187 260 -187 l 367 -187 l 347 -317 l 306 -317 q 155 -286 199 -317 q 111 -183 111 -255 q 143 -88 111 -132 q 243 0 175 -43 l 315 0 z "},"ˇ":{"ha":694,"x_min":224,"x_max":659,"o":"m 224 1021 l 319 1021 l 407 899 l 555 1021 l 659 1021 l 490 782 l 306 782 l 224 1021 z "},"Ł":{"ha":736,"x_min":-43,"x_max":692,"o":"m 53 0 l 111 366 l 22 314 l -43 464 l 143 568 l 211 993 l 478 993 l 431 701 l 608 804 l 692 665 l 399 497 l 358 237 l 686 237 l 648 0 l 53 0 z "},"ł":{"ha":473,"x_min":-45,"x_max":530,"o":"m 96 375 l 20 329 l -45 453 l 123 550 l 204 1051 l 447 1051 l 383 656 l 461 701 l 530 582 l 355 482 l 279 0 l 36 0 l 96 375 z "},"Š":{"ha":798,"x_min":-21,"x_max":778,"o":"m 117 342 q 236 244 179 275 q 353 214 292 214 q 433 238 403 214 q 463 302 463 262 q 342 420 463 357 q 323 429 330 426 q 163 547 206 490 q 119 684 119 603 q 219 924 119 831 q 475 1018 318 1018 q 634 989 557 1018 q 778 903 710 960 l 664 707 q 566 775 610 753 q 485 798 522 798 q 417 774 444 798 q 390 717 390 751 q 492 623 390 675 q 547 593 528 604 q 692 475 652 535 q 733 325 733 415 q 623 70 733 165 q 322 -25 512 -25 q 136 17 222 -25 q -21 143 49 60 l 117 342 m 318 1329 l 414 1329 l 501 1207 l 650 1329 l 753 1329 l 585 1090 l 400 1090 l 318 1329 z "},"š":{"ha":637,"x_min":-28,"x_max":631,"o":"m 581 635 l 510 481 q 424 529 463 514 q 346 545 385 545 q 292 530 313 545 q 271 493 271 515 q 341 435 271 462 q 390 415 372 423 q 528 327 488 372 q 567 212 567 281 q 484 39 567 104 q 261 -26 400 -26 q 111 -6 182 -26 q -28 57 39 15 l 53 221 q 169 161 122 178 q 257 143 216 143 q 315 159 293 143 q 336 200 336 175 q 237 279 336 239 q 191 298 207 292 q 78 375 111 334 q 45 478 45 416 q 127 642 45 576 q 338 707 209 707 q 465 688 403 707 q 581 635 526 670 m 196 1021 l 292 1021 l 379 899 l 528 1021 l 631 1021 l 463 782 l 278 782 l 196 1021 z "},"Ž":{"ha":903,"x_min":-77,"x_max":962,"o":"m -77 0 l 494 775 l 113 775 l 143 993 l 962 993 l 404 236 l 843 236 l 807 0 l -77 0 m 371 1329 l 467 1329 l 554 1207 l 703 1329 l 806 1329 l 637 1090 l 453 1090 l 371 1329 z "},"ž":{"ha":745,"x_min":-72,"x_max":746,"o":"m -72 0 l 340 514 l 58 514 l 85 685 l 746 685 l 350 195 l 664 195 l 633 0 l -72 0 m 249 1021 l 345 1021 l 432 899 l 581 1021 l 684 1021 l 515 782 l 331 782 l 249 1021 z "},"¦":{"ha":694,"x_min":267,"x_max":429,"o":"m 267 277 l 429 277 l 429 -237 l 267 -237 l 267 277 m 267 971 l 429 971 l 429 457 l 267 457 l 267 971 z "},"Ð":{"ha":1064,"x_min":-22,"x_max":1002,"o":"m 43 0 l 109 421 l -22 421 l 5 595 l 136 595 l 200 993 l 370 993 q 642 982 560 993 q 775 946 724 972 q 943 783 885 890 q 1002 528 1002 675 q 949 277 1002 385 q 791 96 897 170 q 615 22 717 44 q 272 0 513 0 l 235 0 l 43 0 m 335 221 q 371 218 353 219 q 408 216 390 217 q 657 297 573 216 q 742 533 742 377 q 681 716 742 659 q 486 774 621 774 l 422 774 l 393 587 l 591 587 l 568 427 l 367 427 l 335 221 z "},"ð":{"ha":851,"x_min":20,"x_max":861,"o":"m 415 489 q 299 435 347 489 q 252 302 252 380 q 287 206 252 241 q 386 171 323 171 q 505 223 458 171 q 551 357 551 276 q 515 454 551 418 q 415 489 479 489 m 582 595 q 552 687 570 644 q 509 771 534 730 l 315 726 l 292 821 l 443 856 q 394 908 417 884 q 351 951 371 932 l 498 1053 q 585 976 549 1012 q 648 903 621 940 l 835 946 l 861 851 l 710 817 q 781 640 758 729 q 804 457 804 550 q 688 103 804 234 q 375 -28 572 -28 q 118 63 216 -28 q 20 301 20 155 q 45 441 20 376 q 119 558 71 507 q 243 644 172 614 q 386 675 313 675 q 506 655 458 675 q 582 595 554 635 z "},"Ý":{"ha":810,"x_min":-28,"x_max":942,"o":"m 182 0 l 252 443 l -28 993 l 268 993 l 376 739 q 394 695 385 720 q 412 642 404 670 q 442 708 431 685 q 460 742 453 732 l 636 993 l 942 993 l 518 440 l 449 0 l 182 0 m 368 1090 l 516 1329 l 726 1329 l 471 1090 l 368 1090 z "},"ý":{"ha":729,"x_min":-24,"x_max":761,"o":"m 178 35 l -17 685 l 233 685 l 293 389 q 297 372 294 383 q 311 270 310 312 q 331 327 319 296 q 359 392 342 357 l 501 685 l 761 685 l 229 -302 l -24 -302 l 178 35 m 286 782 l 435 1021 l 645 1021 l 389 782 l 286 782 z "},"Þ":{"ha":895,"x_min":28,"x_max":856,"o":"m 357 401 l 382 401 q 554 429 509 401 q 600 522 600 456 q 562 602 600 576 q 440 628 523 628 l 392 628 l 357 401 m 323 192 l 292 0 l 28 0 l 186 993 l 450 993 l 424 839 l 464 839 q 760 763 663 839 q 856 530 856 687 q 815 358 856 437 q 705 236 774 279 q 614 202 667 212 q 450 192 561 192 l 395 192 l 323 192 z "},"þ":{"ha":926,"x_min":-29,"x_max":850,"o":"m 602 358 q 562 464 602 425 q 457 504 522 504 q 336 448 384 504 q 288 304 288 391 q 328 204 288 243 q 432 165 368 165 q 553 220 505 165 q 602 358 602 275 m 261 97 q 259 36 261 63 q 254 -11 258 8 l 210 -302 l -29 -302 l 184 1051 l 422 1051 l 364 682 q 355 642 361 665 q 340 590 349 618 q 444 681 388 651 q 567 710 500 710 q 772 622 695 710 q 850 389 850 534 q 748 94 850 211 q 492 -24 646 -24 q 367 5 422 -24 q 261 97 311 35 z "},"−":{"ha":1157,"x_min":172,"x_max":985,"o":"m 172 494 l 985 494 l 985 335 l 172 335 l 172 494 z "},"×":{"ha":1157,"x_min":182,"x_max":999,"o":"m 292 823 l 590 525 l 889 823 l 999 714 l 700 414 l 999 115 l 889 5 l 590 304 l 292 5 l 182 115 l 481 414 l 182 714 l 292 823 z "},"¹":{"ha":559,"x_min":143,"x_max":429,"o":"m 160 390 l 241 854 l 143 854 l 182 981 l 429 981 l 326 390 l 160 390 z "},"²":{"ha":559,"x_min":1,"x_max":525,"o":"m 298 517 q 339 518 317 517 q 364 519 361 519 l 503 519 l 481 390 l 1 390 l 275 675 q 341 753 322 723 q 359 808 359 783 q 341 853 359 837 q 290 869 322 869 q 229 845 252 869 q 205 775 207 820 l 50 775 q 124 935 58 878 q 298 991 189 991 q 463 942 400 991 q 525 812 525 892 q 493 705 525 756 q 383 589 460 654 l 298 517 z "},"³":{"ha":559,"x_min":28,"x_max":525,"o":"m 28 583 l 180 583 q 206 517 184 541 q 267 493 229 493 q 323 513 301 493 q 346 564 346 533 q 321 618 346 599 q 250 637 296 637 l 241 637 l 260 743 q 271 742 264 743 q 288 742 277 742 q 352 761 329 742 q 375 814 375 779 q 354 859 375 842 q 300 876 334 876 q 253 861 272 876 q 227 817 233 846 l 81 817 q 156 945 92 898 q 319 991 220 991 q 468 949 412 991 q 525 836 525 906 q 489 745 525 783 q 387 692 453 707 q 471 646 442 679 q 500 562 500 612 q 435 427 500 479 q 267 375 371 375 q 92 431 155 375 q 28 583 28 486 z "},"¼":{"ha":1301,"x_min":136,"x_max":1275,"o":"m 1053 232 l 1089 404 q 1099 446 1090 416 q 1104 464 1103 458 q 1082 432 1095 448 q 1057 401 1070 416 l 907 232 l 1053 232 m 1011 0 l 1034 126 l 765 126 l 785 232 l 1068 550 l 1250 550 l 1193 232 l 1275 232 l 1257 126 l 1175 126 l 1153 0 l 1011 0 m 302 -26 l 856 1003 l 997 1003 l 449 -26 l 302 -26 m 153 429 l 231 863 l 136 863 l 174 979 l 410 979 l 311 429 l 153 429 z "},"½":{"ha":1301,"x_min":136,"x_max":1267,"o":"m 1050 118 q 1090 120 1069 119 q 1114 121 1112 121 l 1247 121 l 1225 0 l 768 0 l 1029 265 q 1094 341 1076 313 q 1111 390 1111 368 q 1093 432 1111 416 q 1044 447 1075 447 q 985 424 1006 447 q 962 360 964 401 l 815 359 q 885 508 823 455 q 1051 561 947 561 q 1207 515 1148 561 q 1267 395 1267 469 q 1236 294 1267 342 q 1132 184 1206 245 l 1050 118 m 302 -26 l 856 1003 l 997 1003 l 449 -26 l 302 -26 m 153 429 l 231 863 l 136 863 l 174 979 l 410 979 l 311 429 l 153 429 z "},"¾":{"ha":1301,"x_min":26,"x_max":1275,"o":"m 1053 232 l 1089 404 q 1099 446 1090 416 q 1104 464 1103 458 q 1082 432 1095 448 q 1057 401 1070 416 l 907 232 l 1053 232 m 1011 0 l 1034 126 l 765 126 l 785 232 l 1068 550 l 1250 550 l 1193 232 l 1275 232 l 1257 126 l 1175 126 l 1153 0 l 1011 0 m 302 -26 l 856 1003 l 997 1003 l 449 -26 l 302 -26 m 26 608 l 172 608 q 197 547 176 568 q 254 525 218 525 q 309 544 287 525 q 330 591 330 563 q 306 642 330 624 q 237 660 281 660 l 231 660 l 249 758 q 258 757 253 758 q 273 757 264 757 q 336 774 314 757 q 358 823 358 792 q 339 867 358 850 q 288 884 319 884 q 241 869 259 884 q 216 828 223 855 l 77 828 q 150 946 88 903 q 306 990 211 990 q 447 950 393 990 q 501 846 501 911 q 467 761 501 796 q 370 710 433 725 q 450 668 421 699 q 478 589 478 636 q 416 463 478 511 q 254 415 355 415 q 88 466 149 415 q 26 608 28 517 z "},"₣":{"ha":1331,"x_min":28,"x_max":1339,"o":"m 28 0 l 184 993 l 758 993 l 722 765 l 414 765 l 387 602 l 676 602 l 642 387 l 354 387 l 293 0 l 28 0 m 758 0 l 867 685 l 1099 685 l 1082 568 q 1167 667 1114 633 q 1292 701 1221 701 q 1309 700 1299 701 q 1339 696 1318 699 l 1291 481 q 1248 489 1267 486 q 1211 492 1229 492 q 1101 448 1141 492 q 1046 313 1061 404 l 997 0 l 758 0 z "},"Ğ":{"ha":1132,"x_min":60,"x_max":1097,"o":"m 599 541 l 1097 540 q 951 124 1091 275 q 572 -26 812 -26 q 198 102 337 -26 q 60 446 60 230 q 102 671 60 564 q 225 859 145 778 q 405 975 301 935 q 631 1015 509 1015 q 880 958 773 1015 q 1064 783 986 901 l 852 639 q 760 739 815 706 q 631 772 705 772 q 425 682 506 772 q 343 454 343 592 q 408 272 343 340 q 578 203 472 203 q 652 212 617 203 q 717 239 687 221 q 762 280 743 255 q 793 338 781 304 l 567 338 l 599 541 m 490 1321 l 579 1321 l 579 1314 q 604 1247 579 1269 q 677 1225 628 1225 q 769 1249 732 1225 q 828 1321 806 1273 l 920 1321 q 825 1164 889 1217 q 665 1112 761 1112 q 533 1157 578 1112 q 489 1292 489 1202 q 490 1306 489 1297 q 490 1321 490 1316 z "},"ğ":{"ha":917,"x_min":-11,"x_max":861,"o":"m 275 318 q 314 212 275 252 q 416 171 353 171 q 539 227 490 171 q 589 368 589 283 q 549 472 589 433 q 444 511 509 511 q 323 456 371 511 q 275 318 275 401 m 779 161 q 772 117 777 145 q 685 -167 741 -100 q 542 -268 629 -233 q 346 -302 455 -302 q 97 -238 188 -302 q -11 -50 7 -174 l 241 -50 q 275 -114 246 -92 q 353 -136 303 -136 q 472 -92 429 -136 q 528 43 515 -47 l 536 102 q 432 17 490 45 q 304 -11 374 -11 q 108 76 184 -11 q 32 302 32 163 q 134 592 32 477 q 390 707 237 707 q 516 678 460 707 q 619 589 572 649 l 635 685 l 861 685 l 779 161 m 340 1013 l 429 1013 l 429 1006 q 454 939 429 960 q 528 917 478 917 q 619 941 582 917 q 678 1013 656 964 l 770 1013 q 675 856 739 908 q 515 803 611 803 q 384 848 428 803 q 339 983 339 894 q 340 998 339 988 q 340 1013 340 1008 z "},"İ":{"ha":492,"x_min":32,"x_max":464,"o":"m 32 0 l 189 993 l 460 993 l 302 0 l 32 0 m 262 1217 q 293 1286 262 1256 q 364 1317 324 1317 q 435 1288 406 1317 q 464 1217 464 1259 q 436 1144 464 1173 q 364 1116 408 1116 q 292 1145 322 1116 q 262 1217 262 1175 z "},"Ş":{"ha":798,"x_min":-21,"x_max":778,"o":"m 117 342 q 236 244 179 275 q 353 214 292 214 q 433 238 403 214 q 463 302 463 262 q 342 420 463 357 q 323 429 330 426 q 163 547 206 490 q 119 684 119 603 q 219 924 119 831 q 475 1018 318 1018 q 634 989 557 1018 q 778 903 710 960 l 664 707 q 566 775 610 753 q 485 798 522 798 q 417 774 444 798 q 390 717 390 751 q 492 623 390 675 q 547 593 528 604 q 692 475 652 535 q 733 325 733 415 q 623 70 733 165 q 322 -25 512 -25 q 136 17 222 -25 q -21 143 49 60 l 117 342 m 115 -297 l 151 -207 q 235 -234 195 -225 q 310 -243 275 -243 q 358 -229 340 -243 q 376 -192 376 -215 q 352 -156 376 -167 q 268 -146 327 -146 l 241 -146 l 292 0 l 370 0 l 348 -62 q 467 -93 427 -64 q 506 -180 506 -123 q 456 -296 506 -255 q 315 -338 406 -338 q 230 -328 280 -338 q 115 -297 180 -317 z "},"ş":{"ha":637,"x_min":-28,"x_max":581,"o":"m 581 635 l 510 481 q 424 529 463 514 q 346 545 385 545 q 292 530 313 545 q 271 493 271 515 q 341 435 271 462 q 390 415 372 423 q 528 327 488 372 q 567 212 567 281 q 484 39 567 104 q 261 -26 400 -26 q 111 -6 182 -26 q -28 57 39 15 l 53 221 q 169 161 122 178 q 257 143 216 143 q 315 159 293 143 q 336 200 336 175 q 237 279 336 239 q 191 298 207 292 q 78 375 111 334 q 45 478 45 416 q 127 642 45 576 q 338 707 209 707 q 465 688 403 707 q 581 635 526 670 m 36 -297 l 72 -207 q 156 -234 116 -225 q 231 -243 196 -243 q 279 -229 261 -243 q 297 -192 297 -215 q 272 -156 297 -167 q 189 -146 248 -146 l 161 -146 l 212 0 l 290 0 l 269 -62 q 387 -93 348 -64 q 427 -180 427 -123 q 377 -296 427 -255 q 236 -338 327 -338 q 151 -328 201 -338 q 36 -297 101 -317 z "},"Ć":{"ha":907,"x_min":60,"x_max":922,"o":"m 922 946 l 878 672 q 753 747 821 722 q 614 772 686 772 q 410 686 490 772 q 330 467 330 600 q 397 280 330 346 q 587 214 465 214 q 696 227 640 214 q 814 265 752 239 l 772 8 q 660 -17 722 -8 q 528 -25 599 -25 q 188 106 315 -25 q 60 456 60 238 q 93 656 60 561 q 189 829 125 751 q 375 968 264 920 q 625 1017 487 1017 q 778 999 704 1017 q 922 946 852 981 m 501 1090 l 650 1329 l 860 1329 l 604 1090 l 501 1090 z "},"ć":{"ha":694,"x_min":28,"x_max":675,"o":"m 603 435 q 527 494 566 475 q 447 514 489 514 q 328 459 376 514 q 279 322 279 404 q 317 215 279 254 q 418 175 354 175 q 496 189 458 175 q 571 232 534 203 l 534 7 q 441 -18 486 -10 q 353 -26 396 -26 q 118 67 208 -26 q 28 313 28 161 q 139 600 28 490 q 431 710 250 710 q 541 693 488 710 q 636 644 593 677 l 603 435 m 317 782 l 465 1021 l 675 1021 l 420 782 l 317 782 z "},"Č":{"ha":907,"x_min":60,"x_max":922,"o":"m 922 946 l 878 672 q 753 747 821 722 q 614 772 686 772 q 410 686 490 772 q 330 467 330 600 q 397 280 330 346 q 587 214 465 214 q 696 227 640 214 q 814 265 752 239 l 772 8 q 660 -17 722 -8 q 528 -25 599 -25 q 188 106 315 -25 q 60 456 60 238 q 93 656 60 561 q 189 829 125 751 q 375 968 264 920 q 625 1017 487 1017 q 778 999 704 1017 q 922 946 852 981 m 457 1329 l 553 1329 l 640 1207 l 789 1329 l 892 1329 l 724 1090 l 539 1090 l 457 1329 z "},"č":{"ha":694,"x_min":28,"x_max":707,"o":"m 603 435 q 527 494 566 475 q 447 514 489 514 q 328 459 376 514 q 279 322 279 404 q 317 215 279 254 q 418 175 354 175 q 496 189 458 175 q 571 232 534 203 l 534 7 q 441 -18 486 -10 q 353 -26 396 -26 q 118 67 208 -26 q 28 313 28 161 q 139 600 28 490 q 431 710 250 710 q 541 693 488 710 q 636 644 593 677 l 603 435 m 273 1021 l 368 1021 l 456 899 l 604 1021 l 707 1021 l 539 782 l 355 782 l 273 1021 z "},"đ":{"ha":932,"x_min":32,"x_max":1063,"o":"m 281 314 q 321 213 281 251 q 427 175 361 175 q 547 229 499 175 q 595 367 595 283 q 554 461 595 424 q 450 498 513 498 q 329 445 377 498 q 281 314 281 392 m 922 1051 l 903 925 l 1063 925 l 1040 785 l 880 785 l 757 0 l 529 0 l 543 89 q 432 2 492 31 q 301 -28 371 -28 q 108 61 184 -28 q 32 286 32 149 q 135 571 32 456 q 389 686 237 686 q 513 658 458 686 q 616 570 568 630 q 621 628 618 598 q 628 690 623 658 l 643 785 l 406 785 l 428 925 l 665 925 l 685 1051 l 922 1051 z "},"­":{"ha":633,"x_min":46,"x_max":539,"o":"m 46 236 l 79 446 l 539 446 l 505 236 l 46 236 z "},"∙":{"ha":425,"x_min":72,"x_max":347,"o":"m 72 488 q 113 584 72 543 q 210 625 153 625 q 307 585 267 625 q 347 488 347 545 q 307 390 347 429 q 210 351 267 351 q 113 392 153 351 q 72 488 72 432 z "}}}
